<svg width="12" height="12" viewBox="0 0 12 12" fill="none" xmlns="http://www.w3.org/2000/svg">
<path d="M11.4213 1.99312C11.8119 1.60259 11.8119 0.969428 11.4213 0.578904C11.0308 0.18838 10.3976 0.18838 10.0071 0.578904L6.00018 4.58584L1.99325 0.578905C1.60273 0.188381 0.969563 0.18838 0.579038 0.578904C0.188514 0.969429 0.188514 1.60259 0.579038 1.99312L4.58597 6.00005L0.579026 10.007C0.188502 10.3975 0.188502 11.0307 0.579026 11.4212C0.96955 11.8117 1.60272 11.8117 1.99324 11.4212L6.00018 7.41426L10.0071 11.4212C10.3977 11.8117 11.0308 11.8117 11.4213 11.4212C11.8119 11.0307 11.8119 10.3975 11.4213 10.007L7.4144 6.00005L11.4213 1.99312Z" fill="white"/>
</svg>
