<svg width="1293" height="812" viewBox="0 0 1293 812" fill="none" xmlns="http://www.w3.org/2000/svg">
<path d="M79.4103 611.282C79.4103 611.282 112.34 635.632 114.63 679.152L108.63 679.692C108.63 679.692 98.1203 634.692 79.1003 617.092C60.0803 599.492 79.4103 611.282 79.4103 611.282Z" fill="#599DAD"/>
<path d="M184.91 511.311C184.91 511.311 123.01 476.641 151.91 429.601C151.91 429.601 175.02 400.711 199.78 393.281C199.78 393.281 186.57 463.441 199.78 465.091C212.99 466.741 208.86 385.861 208.86 385.861C208.86 385.861 274.06 354.491 299.64 356.971C299.64 356.971 259.2 425.471 272.41 423.821C285.62 422.171 331.01 352.821 331.01 352.821C331.01 352.821 397.86 340.441 408.59 380.061C419.32 419.681 401.99 439.481 392.08 441.961C382.17 444.441 318.63 443.611 320.28 451.861C321.93 460.111 364.85 473.321 388.78 465.861C388.78 465.861 362.37 531.071 327.71 527.771C293.05 524.471 282.31 503.011 260.85 501.351C239.39 499.691 223.71 505.481 234.44 511.261C245.17 517.041 281.44 513.151 298.82 527.891C316.2 542.631 330.18 551.701 297.99 558.301C265.8 564.901 207.99 560.781 196.48 536.021L184.91 511.311Z" fill="#6BB7BF"/>
<path d="M378.04 392.461C378.04 392.461 204.72 448.581 184.91 511.311C184.91 511.311 185.74 539.371 168.41 571.561V583.941C168.41 583.941 186.56 541.851 196.47 536.071C196.47 536.071 157.68 481.601 378.04 392.461Z" fill="#6BB7BF"/>
<path d="M168.411 571.532C168.411 571.532 141.681 612.122 156.911 661.532L163.791 659.682C163.791 659.682 157.121 605.262 171.101 577.892C185.081 550.522 168.411 571.532 168.411 571.532Z" fill="#6BB7BF"/>
<path d="M108.19 542.921C108.19 542.921 143.431 596.431 123.341 661.561L114.281 659.121C114.281 659.121 123.071 587.381 104.641 551.311C86.2106 515.241 108.19 542.921 108.19 542.921Z" fill="#6BB7BF"/>
<path d="M49.8506 801.531C72.3375 804.319 95.1602 802.3 116.808 795.606C138.456 788.912 158.435 777.696 175.423 762.701C192.411 747.706 206.02 729.274 215.349 708.625C224.679 687.975 229.516 665.58 229.541 642.921H189.831C189.828 681.874 175.604 719.486 149.828 748.691C124.053 777.897 88.5012 796.687 49.8506 801.531V801.531Z" fill="#FFEBDC"/>
<path d="M1038.59 507.161C1038.59 507.161 970.8 537.071 949.48 612.961L959.82 616.281C959.82 616.281 996.25 541.051 1036.82 517.541C1077.39 494.031 1038.59 507.161 1038.59 507.161Z" fill="#599DAD"/>
<path d="M778.19 392.531C778.19 392.531 717.36 491.171 757.19 607.861L773.45 602.971C773.45 602.971 753.67 473.731 785.06 407.501C816.45 341.271 778.19 392.531 778.19 392.531Z" fill="#6BB7BF"/>
<path d="M0.549805 810.931H856.61L1035.71 77.2314H179.66L0.549805 810.931Z" fill="#364154"/>
<path d="M1215.13 810.931H359.08L179.98 77.2314H1036.03L1215.13 810.931Z" fill="#B8C1C9"/>
<path d="M1156.46 769.341H397.45L238.65 118.821H997.66L1156.46 769.341Z" fill="#EAEAEA"/>
<path d="M372.38 293.321H301.85L287.09 232.871H357.62L372.38 293.321Z" fill="#00A3FE"/>
<path d="M479.11 293.321H408.58L393.82 232.871H464.35L479.11 293.321Z" fill="#00A3FE"/>
<path d="M587.07 293.321H516.54L501.78 232.871H572.31L587.07 293.321Z" fill="#00A3FE"/>
<path d="M695.03 293.321H624.49L609.74 232.871H680.27L695.03 293.321Z" fill="#00A3FE"/>
<path d="M802.98 293.321H732.45L717.69 232.871H788.23L802.98 293.321Z" fill="#00A3FE"/>
<path d="M910.94 293.321H840.41L825.65 232.871H896.18L910.94 293.321Z" fill="#00A3FE"/>
<path d="M1018.9 293.321H948.36L933.61 232.871H1004.14L1018.9 293.321Z" fill="#00A3FE"/>
<path d="M401.8 400.281H331.26L316.51 339.831H387.04L401.8 400.281Z" fill="#00A3FE"/>
<path d="M508.53 400.281H437.99L423.24 339.831H493.77L508.53 400.281Z" fill="#00A3FE"/>
<path d="M616.48 400.281H545.95L531.19 339.831H601.73L616.48 400.281Z" fill="#00A3FE"/>
<path d="M724.44 400.281H653.91L639.15 339.831H709.68L724.44 400.281Z" fill="#00A3FE"/>
<path d="M832.4 400.281H761.87L747.11 339.831H817.64L832.4 400.281Z" fill="#00A3FE"/>
<path d="M940.36 400.281H869.82L855.07 339.831H925.6L940.36 400.281Z" fill="#00A3FE"/>
<path d="M1048.31 400.281H977.781L963.021 339.831H1033.56L1048.31 400.281Z" fill="#00A3FE"/>
<path d="M428.54 505.911H358.01L343.25 445.461H413.78L428.54 505.911Z" fill="#00A3FE"/>
<path d="M535.27 505.911H464.74L449.98 445.461H520.51L535.27 505.911Z" fill="#00A3FE"/>
<path d="M643.23 505.911H572.69L557.94 445.461H628.47L643.23 505.911Z" fill="#00A3FE"/>
<path d="M751.18 505.911H680.65L665.89 445.461H736.42L751.18 505.911Z" fill="#00A3FE"/>
<path d="M859.141 505.911H788.611L773.851 445.461H844.381L859.141 505.911Z" fill="#00A3FE"/>
<path d="M967.1 505.911H896.56L881.81 445.461H952.34L967.1 505.911Z" fill="#00A3FE"/>
<path d="M1075.05 505.911H1004.52L989.76 445.461H1060.3L1075.05 505.911Z" fill="#00A3FE"/>
<path d="M455.28 608.861H384.75L369.99 548.411H440.52L455.28 608.861Z" fill="#00A3FE"/>
<path d="M562.01 608.861H491.48L476.72 548.411H547.25L562.01 608.861Z" fill="#00A3FE"/>
<path d="M669.971 608.861H599.431L584.681 548.411H655.211L669.971 608.861Z" fill="#00A3FE"/>
<path d="M777.92 608.861H707.39L692.63 548.411H763.17L777.92 608.861Z" fill="#00A3FE"/>
<path d="M885.88 608.861H815.35L800.59 548.411H871.12L885.88 608.861Z" fill="#00A3FE"/>
<path d="M993.84 608.861H923.31L908.55 548.411H979.08L993.84 608.861Z" fill="#00A3FE"/>
<path d="M1101.8 608.861H1031.26L1016.51 548.411H1087.04L1101.8 608.861Z" fill="#00A3FE"/>
<path d="M480.68 710.481H410.15L395.39 650.031H465.93L480.68 710.481Z" fill="#00A3FE"/>
<path d="M587.41 710.481H516.88L502.12 650.031H572.66L587.41 710.481Z" fill="#00A3FE"/>
<path d="M695.37 710.481H624.84L610.08 650.031H680.61L695.37 710.481Z" fill="#00A3FE"/>
<path d="M0.549805 810.931L182.38 776.041L359.08 810.931H0.549805Z" fill="#131F2D"/>
<path d="M331.32 0.53125C310.698 0.54858 290.894 8.59845 276.108 22.9735C261.323 37.3486 252.718 56.9181 252.12 77.5312H283.81C284.254 68.2382 287.416 59.2799 292.904 51.7668C298.391 44.2538 305.963 38.5165 314.681 35.2662C323.398 32.0158 332.878 31.3954 341.945 33.4818C351.011 35.5682 359.267 40.2696 365.687 47.0033C372.107 53.737 376.409 62.2068 378.061 71.3627C379.713 80.5185 378.641 89.9578 374.979 98.5104C371.317 107.063 365.225 114.353 357.459 119.476C349.693 124.599 340.594 127.33 331.29 127.331C329.176 127.278 327.072 127.649 325.103 128.421C323.135 129.193 321.34 130.352 319.826 131.829C318.312 133.305 317.108 135.07 316.287 137.019C315.465 138.968 315.042 141.061 315.042 143.176C315.042 145.291 315.465 147.385 316.287 149.334C317.108 151.282 318.312 153.047 319.826 154.524C321.34 156 323.135 157.159 325.103 157.931C327.072 158.704 329.176 159.074 331.29 159.021C352.148 158.787 372.071 150.337 386.738 135.505C401.404 120.673 409.63 100.655 409.63 79.7963C409.63 58.9373 401.404 38.9199 386.738 24.0878C372.071 9.25566 352.148 0.805565 331.29 0.571228L331.32 0.53125Z" fill="#131F2D"/>
<path d="M532.021 0.53125C511.405 0.558896 491.61 8.61304 476.831 22.9868C462.052 37.3605 453.451 56.9241 452.851 77.5312H484.541C484.983 68.2352 488.144 59.2735 493.632 51.7573C499.12 44.2411 506.694 38.501 515.413 35.2487C524.133 31.9964 533.616 31.375 542.685 33.4615C551.755 35.548 560.013 40.2506 566.435 46.9864C572.857 53.7221 577.16 62.1947 578.812 71.3535C580.464 80.5122 579.391 89.9544 575.727 98.5092C572.063 107.064 565.968 114.355 558.199 119.479C550.429 124.602 541.327 127.332 532.021 127.331C527.887 127.435 523.958 129.15 521.071 132.11C518.185 135.07 516.569 139.042 516.569 143.176C516.569 147.311 518.185 151.282 521.071 154.242C523.958 157.202 527.887 158.917 532.021 159.021C542.499 159.139 552.898 157.177 562.613 153.248C572.328 149.319 581.167 143.503 588.619 136.134C596.071 128.766 601.987 119.992 606.024 110.322C610.062 100.651 612.141 90.2758 612.141 79.7963C612.141 69.3167 610.062 58.9413 606.024 49.2708C601.987 39.6002 596.071 30.8268 588.619 23.4584C581.167 16.09 572.328 10.273 562.613 6.34442C552.898 2.4158 542.499 0.453497 532.021 0.571228V0.53125Z" fill="#131F2D"/>
<path d="M732.73 0.53125C712.113 0.556375 692.316 8.6097 677.537 22.9839C662.758 37.3582 654.158 56.9232 653.56 77.5312H685.25C685.694 68.2382 688.856 59.2799 694.344 51.7668C699.831 44.2538 707.403 38.5165 716.12 35.2662C724.838 32.0158 734.318 31.3954 743.384 33.4818C752.451 35.5682 760.706 40.2696 767.126 47.0033C773.546 53.737 777.848 62.2068 779.5 71.3627C781.152 80.5185 780.08 89.9578 776.418 98.5104C772.756 107.063 766.664 114.353 758.898 119.476C751.132 124.599 742.033 127.33 732.73 127.331C730.615 127.278 728.512 127.649 726.543 128.421C724.574 129.193 722.78 130.352 721.266 131.829C719.751 133.305 718.548 135.07 717.726 137.019C716.905 138.968 716.481 141.061 716.481 143.176C716.481 145.291 716.905 147.385 717.726 149.334C718.548 151.282 719.751 153.047 721.266 154.524C722.78 156 724.574 157.159 726.543 157.931C728.512 158.704 730.615 159.074 732.73 159.021C753.587 158.787 773.511 150.337 788.177 135.505C802.844 120.673 811.07 100.655 811.07 79.7963C811.07 58.9373 802.844 38.9199 788.177 24.0878C773.511 9.25566 753.587 0.805565 732.73 0.571228V0.53125Z" fill="#131F2D"/>
<path d="M933.43 0.53125C912.814 0.558896 893.019 8.61304 878.24 22.9868C863.461 37.3605 854.86 56.9241 854.26 77.5312H885.95C886.392 68.2352 889.554 59.2735 895.042 51.7573C900.529 44.2411 908.103 38.501 916.823 35.2487C925.542 31.9964 935.025 31.375 944.094 33.4615C953.164 35.548 961.422 40.2506 967.844 46.9864C974.266 53.7221 978.57 62.1947 980.221 71.3535C981.873 80.5122 980.801 89.9544 977.136 98.5092C973.472 107.064 967.377 114.355 959.608 119.479C951.839 124.602 942.736 127.332 933.43 127.331C929.296 127.435 925.367 129.15 922.48 132.11C919.594 135.07 917.978 139.042 917.978 143.176C917.978 147.311 919.594 151.282 922.48 154.242C925.367 157.202 929.296 158.917 933.43 159.021C943.909 159.139 954.307 157.177 964.022 153.248C973.737 149.319 982.577 143.503 990.029 136.134C997.48 128.766 1003.4 119.992 1007.43 110.322C1011.47 100.651 1013.55 90.2758 1013.55 79.7963C1013.55 69.3167 1011.47 58.9413 1007.43 49.2708C1003.4 39.6002 997.48 30.8268 990.029 23.4584C982.577 16.09 973.737 10.273 964.022 6.34442C954.307 2.4158 943.909 0.453497 933.43 0.571228V0.53125Z" fill="#131F2D"/>
<path d="M179.98 77.2314L182.38 776.041L0.549805 810.931L179.98 77.2314Z" fill="#657285"/>
<path d="M744.59 332.531C771.94 340.471 799.8 341.531 821.85 337.801C844.13 334.061 859.13 321.741 863.09 308.111C866.67 295.751 861.39 281.891 847.8 268.031C860.8 281.311 865.41 296.601 862.15 307.831C858.53 320.301 844.15 329.521 822.72 333.111C800.72 336.791 773.61 334.461 746.33 326.541C719.05 318.621 694.87 306.071 678.28 291.191C662.1 276.691 654.89 261.191 658.51 248.741C662.34 235.541 678.51 222.421 700.58 214.521C725.73 205.521 752.98 207.391 778.73 214.861C827.07 228.861 843.87 245.371 857.24 263.801C843.81 245.291 828.59 224.311 780.08 210.241C754.053 202.741 726.332 203.57 700.8 212.611C678.21 220.681 661.65 234.421 657.57 248.471C653.57 262.111 660.7 277.921 677.57 293.011C694.17 307.911 717.23 324.581 744.59 332.531Z" fill="#131F2D"/>
<path d="M1232.48 425.381C1232.48 425.381 1230.28 446.811 1227.86 450.871C1225.44 454.931 1215.14 467.871 1210.76 470.411C1206.38 472.951 1213.44 453.351 1212.54 449.531C1211.64 445.711 1208.93 456.531 1207 456.751C1205.07 456.971 1205.56 447.301 1205.49 443.751C1205.42 440.201 1214.9 431.501 1218.24 423.991C1221.58 416.481 1232.48 425.381 1232.48 425.381Z" fill="#FF7955"/>
<path d="M969.201 227.731L964.28 218.441C964.28 218.441 966.721 201.881 945.971 191.441C945.971 191.441 938.391 188.351 934.111 194.531C930.161 200.231 941.62 199.201 941.01 208.951C940.4 218.701 945.011 224.411 951.461 227.591L956.78 233.751L969.201 227.731Z" fill="#FF7955"/>
<path d="M1165.29 205.532C1165.29 205.532 1147.47 292.982 1049.41 321.532C1018.8 330.452 949.271 229.672 949.271 229.672C949.271 229.672 951.711 220.392 967.031 222.522C967.031 222.522 1034.73 267.342 1043.26 272.212C1050.82 276.532 1100.56 216.672 1123.26 207.012C1145.96 197.352 1165.29 205.532 1165.29 205.532Z" fill="#016EB9"/>
<path d="M904.286 188.285L901.507 206.383L992.56 220.365L995.339 202.267L904.286 188.285Z" fill="#131F2D"/>
<path d="M881.81 194.121L901.59 206.421L904.37 188.321L881.81 194.121Z" fill="#FF7955"/>
<path d="M1005.12 209.931L1004.24 215.661C1004.11 216.498 1003.82 217.301 1003.38 218.025C1002.94 218.749 1002.37 219.379 1001.68 219.88C1001 220.38 1000.23 220.741 999.403 220.942C998.58 221.143 997.726 221.18 996.89 221.051L992.67 220.411L995.45 202.301L1000.04 203.011C1000.83 203.132 1001.58 203.406 1002.27 203.82C1002.95 204.233 1003.54 204.776 1004.01 205.419C1004.48 206.061 1004.83 206.79 1005.02 207.565C1005.21 208.339 1005.24 209.143 1005.12 209.931V209.931Z" fill="#FF7955"/>
<path d="M1282.35 755.281C1282.35 755.281 1294.51 766.391 1292.14 774.281C1289.77 782.171 1278.79 787.431 1277.31 797.071C1275.83 806.711 1269.89 811.971 1264.55 811.971H1239.12C1239.12 811.971 1235.19 805.191 1244.68 803.141C1254.17 801.091 1257.75 789.771 1257.16 779.251C1256.57 768.731 1258.05 754.711 1258.05 754.711L1278.23 750.041L1282.35 755.281Z" fill="#131F2D"/>
<path d="M1133.12 784.001C1133.12 784.001 1135.3 809.261 1129.96 811.891L1061.61 811.751C1061.61 811.751 1061.61 803.861 1072.61 802.111C1083.61 800.361 1102.87 793.931 1106.14 779.611C1109.41 765.291 1133.12 784.001 1133.12 784.001Z" fill="#131F2D"/>
<path d="M1075.41 427.121C1075.41 427.121 1079.02 471.411 1083.26 524.641C1089.01 596.951 1095.94 685.781 1096.62 702.641C1097.81 731.861 1102.56 778.641 1102.56 778.641C1102.56 778.641 1113.83 789.741 1136.38 785.061C1136.38 785.061 1156.48 718.341 1162.22 647.751L1162.49 644.261C1167.83 572.401 1176.13 421.071 1176.13 421.071L1075.41 427.121Z" fill="#364154"/>
<path d="M1075.41 427.121C1075.41 427.121 1079.02 471.411 1083.26 524.641L1162.26 647.641L1162.53 644.151C1167.87 572.291 1176.17 420.961 1176.17 420.961L1075.41 427.121Z" fill="#131F2D"/>
<path d="M1091.88 432.382C1091.88 432.382 1156.88 592.762 1199.57 668.132C1242.26 743.502 1255.65 764.542 1255.65 764.542C1255.65 764.542 1280.12 754.902 1282.35 748.322C1282.35 748.322 1266.01 602.822 1237.4 567.322C1221.23 547.322 1202.24 487.132 1201.35 466.092C1200.46 445.052 1195.57 403.432 1195.57 403.432L1091.88 432.382Z" fill="#364154"/>
<path d="M1177.36 185.221C1177.36 185.221 1133.36 206.431 1108.06 198.561C1112.88 192.968 1118.69 188.316 1125.21 184.841C1124.34 179.751 1123.65 175.331 1123.21 171.591C1122.6 167.104 1122.25 162.588 1122.14 158.061L1139.14 144.721L1155.23 131.951C1153.97 167.851 1177.36 185.221 1177.36 185.221Z" fill="#FF7955"/>
<path d="M1200.53 411.681C1200.63 414.361 1194.88 417.431 1192.34 418.591C1173.53 426.841 1155.98 432.591 1136.1 434.521C1112.61 436.921 1084.82 431.641 1075.27 431.831C1074.3 431.828 1073.37 431.472 1072.64 430.831C1071.96 430.341 1071.47 402.031 1071.96 366.421C1071.96 364.981 1071.96 363.541 1072.06 362.101V361.531C1072.25 347.611 1072.74 333.031 1073.42 318.441C1074.79 286.381 1077.32 255.441 1081.61 238.391C1086.77 218.231 1098.47 204.891 1109.1 195.191L1117.87 187.521C1127.08 189.507 1136.68 188.356 1145.16 184.251C1155.3 179.361 1166.22 174.081 1167.97 175.421C1181.23 185.121 1190.2 206.901 1194.97 234.741C1197.81 252.191 1199.15 269.852 1198.97 287.531C1198.97 294.441 1198.78 301.531 1198.39 308.531C1196.05 346.531 1198.39 379.531 1199.75 398.661C1200.12 404.281 1200.43 408.601 1200.53 411.681Z" fill="#00A3FE"/>
<path d="M1199.75 409.931C1045.81 409.621 1171.36 242.881 1171.36 242.881L1196.3 234.781C1198.36 253.509 1199.32 272.341 1199.19 291.181C1199.19 298.561 1199.05 306.181 1198.76 313.641C1197.12 354.251 1198.76 389.531 1199.75 409.931Z" fill="#016EB9"/>
<path d="M1155.53 145.681C1155.53 145.681 1144.42 165.931 1123.26 171.591C1122.65 167.104 1122.3 162.588 1122.19 158.061L1139.19 144.721L1155.53 145.681Z" fill="#EF6343"/>
<path d="M1114.46 157.471C1114.46 157.471 1156.4 164.331 1160.33 138.551C1164.26 112.771 1172.33 96.2913 1145.72 90.8213C1119.11 85.3513 1112.4 94.4113 1108.96 102.711C1105.52 111.011 1103.65 155.021 1114.46 157.471Z" fill="#FF7955"/>
<path d="M1175.58 87.7313C1175.96 87.3013 1176.83 86.9412 1178.79 86.8412C1177.67 86.2164 1176.42 85.8731 1175.14 85.8412C1174.73 83.1212 1173.28 78.3112 1168.61 77.1412C1169.37 77.5876 1170.02 78.1997 1170.51 78.9321C1171.01 79.6644 1171.33 80.4981 1171.45 81.3713C1166.03 75.8113 1154.45 71.7613 1122.28 74.3013C1079.92 77.6413 1093.89 104.761 1099.37 107.991C1104.85 111.221 1118.66 102.361 1128.87 103.171C1139.08 103.981 1141.03 118.751 1144.5 120.771C1147.97 122.791 1146.6 119.221 1151.29 117.101C1155.98 114.981 1156.43 122.751 1155.07 127.801C1153.71 132.851 1160.12 139.531 1160.12 139.531L1166.63 132.531C1173.15 125.531 1179.28 95.8113 1176.32 89.4813L1175.58 87.7313Z" fill="#131F2D"/>
<path d="M1167.96 175.251C1167.96 175.251 1194.49 187.811 1207.21 207.131C1226.95 237.131 1249.82 346.301 1250.21 356.411C1250.6 366.521 1233.51 437.921 1233.51 437.921C1233.51 437.921 1216.15 436.771 1211.67 428.011C1211.67 428.011 1215.14 354.661 1212.94 349.941C1210.74 345.221 1140.6 251.531 1148.49 231.531C1156.38 211.531 1167.96 175.251 1167.96 175.251Z" fill="#00A3FE"/>
<path d="M964.19 218.001C964.19 218.001 965.63 212.301 961.67 209.741C957.71 207.181 954.08 200.211 952.42 201.151C948.96 203.151 954.31 209.151 953.33 216.771C952.99 219.431 959.17 226.381 964.19 218.001Z" fill="#FF7955"/>
</svg>
