<svg width="101" height="101" viewBox="0 0 101 101" fill="none" xmlns="http://www.w3.org/2000/svg">
<rect width="101" height="101" rx="4" fill="white"/>
<g clip-path="url(#clip0_1806_12545)">
<path d="M68.3607 19.3361C64.9861 17.7571 61.416 16.6352 57.7448 16C57.2875 16.8267 56.7532 17.9387 56.3848 18.8233C52.4266 18.2281 48.5048 18.2281 44.6193 18.8233C44.2511 17.9389 43.7048 16.8267 43.2433 16C39.5685 16.6355 35.9953 17.7603 32.6191 19.3443C25.9007 29.4969 24.0794 39.397 24.99 49.157C29.4461 52.4846 33.7644 54.5061 38.0101 55.8289C39.0652 54.3779 39.998 52.8417 40.7986 51.2362C39.2743 50.6558 37.8047 49.9406 36.4075 49.0991C36.7752 48.8266 37.1342 48.5425 37.4841 48.2474C45.9508 52.2076 55.1504 52.2076 63.5163 48.2474C63.8676 48.5406 64.2265 48.8246 64.5926 49.0991C63.1931 49.9429 61.7209 50.6595 60.1934 51.2404C60.9987 52.8525 61.9297 54.3902 62.982 55.833C67.2316 54.5104 71.5541 52.4888 76.0101 49.157C77.0787 37.8428 74.185 28.0334 68.3607 19.3359V19.3361ZM41.9522 43.1548C39.4105 43.1548 37.3261 40.7819 37.3261 37.8925C37.3261 35.003 39.3661 32.6261 41.9522 32.6261C44.5385 32.6261 46.6228 34.9988 46.5783 37.8925C46.5824 40.7819 44.5385 43.1548 41.9522 43.1548ZM59.0479 43.1548C56.5062 43.1548 54.422 40.7819 54.422 37.8925C54.422 35.003 56.4618 32.6261 59.0479 32.6261C61.6342 32.6261 63.7185 34.9988 63.674 37.8925C63.674 40.7819 61.6342 43.1548 59.0479 43.1548V43.1548Z" fill="#5865F2"/>
</g>
<path d="M27.718 80V70.13H31.05C32.646 70.13 33.878 70.5547 34.746 71.404C35.614 72.244 36.048 73.462 36.048 75.058C36.048 76.654 35.614 77.8767 34.746 78.726C33.878 79.5753 32.646 80 31.05 80H27.718ZM28.866 79.02H30.966C33.542 79.02 34.83 77.6993 34.83 75.058C34.83 72.426 33.542 71.11 30.966 71.11H28.866V79.02ZM37.8146 71.502V70.228H39.2146V71.502H37.8146ZM37.9546 80V73.196H39.0886V80H37.9546ZM43.5045 80.126C42.9725 80.126 42.4685 80.0513 41.9925 79.902C41.5165 79.7527 41.1245 79.5427 40.8165 79.272L41.1805 78.474C41.5165 78.7447 41.8852 78.9453 42.2865 79.076C42.6972 79.1973 43.1125 79.258 43.5325 79.258C44.0645 79.258 44.4659 79.16 44.7365 78.964C45.0072 78.768 45.1425 78.502 45.1425 78.166C45.1425 77.9047 45.0539 77.6993 44.8765 77.55C44.6992 77.3913 44.4192 77.27 44.0365 77.186L42.7625 76.906C41.6052 76.654 41.0265 76.0567 41.0265 75.114C41.0265 74.498 41.2692 74.0033 41.7545 73.63C42.2492 73.2567 42.8932 73.07 43.6865 73.07C44.1532 73.07 44.5965 73.1447 45.0165 73.294C45.4459 73.434 45.8005 73.644 46.0805 73.924L45.7025 74.722C45.4319 74.47 45.1145 74.2787 44.7505 74.148C44.3959 74.008 44.0412 73.938 43.6865 73.938C43.1639 73.938 42.7672 74.0407 42.4965 74.246C42.2259 74.4513 42.0905 74.722 42.0905 75.058C42.0905 75.5807 42.4359 75.9167 43.1265 76.066L44.4005 76.332C44.9979 76.4627 45.4505 76.6727 45.7585 76.962C46.0665 77.242 46.2205 77.6247 46.2205 78.11C46.2205 78.7353 45.9732 79.23 45.4785 79.594C44.9839 79.9487 44.3259 80.126 43.5045 80.126ZM50.8328 80.126C50.1514 80.126 49.5634 79.9813 49.0688 79.692C48.5741 79.3933 48.1914 78.978 47.9208 78.446C47.6594 77.9047 47.5288 77.2747 47.5288 76.556C47.5288 75.4733 47.8228 74.624 48.4108 74.008C48.9988 73.3827 49.8061 73.07 50.8328 73.07C51.2528 73.07 51.6681 73.1447 52.0788 73.294C52.4894 73.4433 52.8301 73.6533 53.1008 73.924L52.7088 74.75C52.4381 74.4887 52.1394 74.2973 51.8128 74.176C51.4954 74.0547 51.1921 73.994 50.9028 73.994C50.1934 73.994 49.6474 74.218 49.2648 74.666C48.8821 75.1047 48.6908 75.7393 48.6908 76.57C48.6908 77.382 48.8821 78.026 49.2648 78.502C49.6474 78.9687 50.1934 79.202 50.9028 79.202C51.1921 79.202 51.4954 79.1413 51.8128 79.02C52.1394 78.8987 52.4381 78.7027 52.7088 78.432L53.1008 79.258C52.8301 79.5287 52.4848 79.7433 52.0648 79.902C51.6541 80.0513 51.2434 80.126 50.8328 80.126ZM57.1205 80.126C56.4578 80.126 55.8838 79.9813 55.3985 79.692C54.9132 79.4027 54.5352 78.9967 54.2645 78.474C54.0032 77.942 53.8725 77.3167 53.8725 76.598C53.8725 75.8793 54.0032 75.2587 54.2645 74.736C54.5352 74.204 54.9132 73.7933 55.3985 73.504C55.8838 73.2147 56.4578 73.07 57.1205 73.07C57.7738 73.07 58.3432 73.2147 58.8285 73.504C59.3232 73.7933 59.7012 74.204 59.9625 74.736C60.2332 75.2587 60.3685 75.8793 60.3685 76.598C60.3685 77.3167 60.2332 77.942 59.9625 78.474C59.7012 78.9967 59.3232 79.4027 58.8285 79.692C58.3432 79.9813 57.7738 80.126 57.1205 80.126ZM57.1205 79.216C57.7552 79.216 58.2638 78.992 58.6465 78.544C59.0292 78.0867 59.2205 77.438 59.2205 76.598C59.2205 75.7487 59.0292 75.1 58.6465 74.652C58.2638 74.204 57.7552 73.98 57.1205 73.98C56.4765 73.98 55.9632 74.204 55.5805 74.652C55.2072 75.1 55.0205 75.7487 55.0205 76.598C55.0205 77.438 55.2072 78.0867 55.5805 78.544C55.9632 78.992 56.4765 79.216 57.1205 79.216ZM62.0718 80V73.196H63.1778V74.414C63.5418 73.5927 64.2885 73.14 65.4178 73.056L65.8238 73.014L65.9078 73.994L65.1938 74.078C64.5498 74.134 64.0598 74.3393 63.7238 74.694C63.3878 75.0393 63.2198 75.5153 63.2198 76.122V80H62.0718ZM69.5974 80.126C68.9907 80.126 68.4587 79.9813 68.0014 79.692C67.5534 79.4027 67.2034 78.9967 66.9514 78.474C66.7087 77.942 66.5874 77.3167 66.5874 76.598C66.5874 75.87 66.7087 75.2447 66.9514 74.722C67.2034 74.19 67.5534 73.784 68.0014 73.504C68.4587 73.2147 68.9907 73.07 69.5974 73.07C70.1294 73.07 70.596 73.1867 70.9974 73.42C71.408 73.6533 71.7114 73.9753 71.9074 74.386V70.13H73.0414V80H71.9354V78.754C71.7394 79.1833 71.436 79.5193 71.0254 79.762C70.6147 80.0047 70.1387 80.126 69.5974 80.126ZM69.8354 79.216C70.47 79.216 70.9787 78.992 71.3614 78.544C71.744 78.0867 71.9354 77.438 71.9354 76.598C71.9354 75.7487 71.744 75.1 71.3614 74.652C70.9787 74.204 70.47 73.98 69.8354 73.98C69.1914 73.98 68.678 74.204 68.2954 74.652C67.922 75.1 67.7354 75.7487 67.7354 76.598C67.7354 77.438 67.922 78.0867 68.2954 78.544C68.678 78.992 69.1914 79.216 69.8354 79.216Z" fill="#606060"/>
<defs>
<clipPath id="clip0_1806_12545">
<rect width="51.4574" height="40" fill="white" transform="translate(24.7715 16)"/>
</clipPath>
</defs>
</svg>
