<svg width="101" height="101" viewBox="0 0 101 101" fill="none" xmlns="http://www.w3.org/2000/svg">
<rect width="101" height="101" rx="4" fill="white"/>
<g clip-path="url(#clip0_1806_12549)">
<path d="M53.6885 35.9666L58.4197 41.3746L64.7821 45.44L65.8889 36.0008L64.7821 26.7744L58.2978 30.3458L53.6885 35.9666Z" fill="#00832D"/>
<path d="M26.2344 44.5611V52.6047C26.2344 54.4413 27.7252 55.9325 29.5622 55.9325H37.6058L39.2714 49.8549L37.6058 44.5611L32.0873 42.8955L26.2346 44.5611H26.2344Z" fill="#0066DA"/>
<path d="M37.6058 16L26.2344 27.3714L32.0877 29.033L37.6058 27.3714L39.241 22.1496L37.6058 16Z" fill="#E94235"/>
<path d="M26.2344 44.5646H37.6056V27.3711H26.2344V44.5646Z" fill="#2684FC"/>
<path d="M72.0465 20.8147L64.7822 26.7741V45.4395L72.0765 51.4221C73.1684 52.2775 74.7657 51.4979 74.7657 50.1099V22.1004C74.7657 20.697 73.1303 19.9212 72.0463 20.8149" fill="#00AC47"/>
<path d="M53.689 35.9663V44.5612H37.606V55.9326H61.4551C63.2921 55.9326 64.7827 54.4414 64.7827 52.6048V45.4397L53.689 35.9663Z" fill="#00AC47"/>
<path d="M61.4551 16H37.606V27.3714H53.689V35.9663L64.7829 26.7738V19.328C64.7829 17.491 63.2921 16.0002 61.4551 16.0002" fill="#FFBA00"/>
</g>
<path d="M35.226 80.126C33.6393 80.126 32.4307 79.678 31.6 78.782C30.7693 77.886 30.354 76.6493 30.354 75.072C30.354 74.0267 30.5407 73.126 30.914 72.37C31.2873 71.614 31.824 71.0307 32.524 70.62C33.224 70.2093 34.0687 70.004 35.058 70.004C35.758 70.004 36.402 70.1113 36.99 70.326C37.578 70.5313 38.0773 70.8347 38.488 71.236L38.04 72.16C37.592 71.768 37.13 71.4833 36.654 71.306C36.178 71.1287 35.6413 71.04 35.044 71.04C33.924 71.04 33.0653 71.3947 32.468 72.104C31.8707 72.804 31.572 73.7933 31.572 75.072C31.572 76.3787 31.88 77.3773 32.496 78.068C33.112 78.7587 34.0313 79.104 35.254 79.104C36.0473 79.104 36.808 78.9687 37.536 78.698V75.772H35.03V74.862H38.53V79.426C38.2687 79.566 37.9513 79.6873 37.578 79.79C37.214 79.8927 36.8267 79.972 36.416 80.028C36.0053 80.0933 35.6087 80.126 35.226 80.126ZM40.7502 80V73.196H41.8562V74.344C42.0615 73.9333 42.3462 73.6207 42.7102 73.406C43.0742 73.182 43.4989 73.07 43.9842 73.07C45.0482 73.07 45.7295 73.532 46.0282 74.456C46.2335 74.0267 46.5369 73.6907 46.9382 73.448C47.3395 73.196 47.8015 73.07 48.3242 73.07C49.8362 73.07 50.5922 73.966 50.5922 75.758V80H49.4582V75.814C49.4582 75.1887 49.3462 74.7313 49.1222 74.442C48.9075 74.1433 48.5482 73.994 48.0442 73.994C47.4935 73.994 47.0549 74.19 46.7282 74.582C46.4015 74.974 46.2382 75.4967 46.2382 76.15V80H45.1042V75.814C45.1042 75.1887 44.9922 74.7313 44.7682 74.442C44.5535 74.1433 44.1942 73.994 43.6902 73.994C43.1302 73.994 42.6869 74.19 42.3602 74.582C42.0429 74.974 41.8842 75.4967 41.8842 76.15V80H40.7502ZM55.7784 80.126C54.7051 80.126 53.8558 79.8133 53.2304 79.188C52.6051 78.5533 52.2924 77.6947 52.2924 76.612C52.2924 75.912 52.4324 75.296 52.7124 74.764C52.9924 74.2227 53.3751 73.8073 53.8604 73.518C54.3551 73.2193 54.9244 73.07 55.5684 73.07C56.4924 73.07 57.2158 73.3687 57.7384 73.966C58.2611 74.554 58.5224 75.366 58.5224 76.402V76.836H53.3984C53.4358 77.6107 53.6598 78.2033 54.0704 78.614C54.4811 79.0153 55.0504 79.216 55.7784 79.216C56.1891 79.216 56.5811 79.1553 56.9544 79.034C57.3278 78.9033 57.6824 78.6933 58.0184 78.404L58.4104 79.202C58.1024 79.4913 57.7104 79.72 57.2344 79.888C56.7584 80.0467 56.2731 80.126 55.7784 80.126ZM55.5964 73.91C54.9524 73.91 54.4438 74.1107 54.0704 74.512C53.6971 74.9133 53.4778 75.4407 53.4124 76.094H57.5424C57.5144 75.4033 57.3324 74.8667 56.9964 74.484C56.6698 74.1013 56.2031 73.91 55.5964 73.91ZM63.2296 80.126C62.1563 80.126 61.3069 79.8133 60.6816 79.188C60.0563 78.5533 59.7436 77.6947 59.7436 76.612C59.7436 75.912 59.8836 75.296 60.1636 74.764C60.4436 74.2227 60.8263 73.8073 61.3116 73.518C61.8063 73.2193 62.3756 73.07 63.0196 73.07C63.9436 73.07 64.6669 73.3687 65.1896 73.966C65.7123 74.554 65.9736 75.366 65.9736 76.402V76.836H60.8496C60.8869 77.6107 61.1109 78.2033 61.5216 78.614C61.9323 79.0153 62.5016 79.216 63.2296 79.216C63.6403 79.216 64.0323 79.1553 64.4056 79.034C64.7789 78.9033 65.1336 78.6933 65.4696 78.404L65.8616 79.202C65.5536 79.4913 65.1616 79.72 64.6856 79.888C64.2096 80.0467 63.7243 80.126 63.2296 80.126ZM63.0476 73.91C62.4036 73.91 61.8949 74.1107 61.5216 74.512C61.1483 74.9133 60.9289 75.4407 60.8636 76.094H64.9936C64.9656 75.4033 64.7836 74.8667 64.4476 74.484C64.1209 74.1013 63.6543 73.91 63.0476 73.91ZM70.3448 80.126C69.5421 80.126 68.9401 79.916 68.5388 79.496C68.1374 79.0667 67.9368 78.4507 67.9368 77.648V74.078H66.6068V73.196H67.9368V71.11H69.0708V73.196H71.2268V74.078H69.0708V77.536C69.0708 78.068 69.1828 78.474 69.4068 78.754C69.6308 79.0247 69.9948 79.16 70.4988 79.16C70.6481 79.16 70.7974 79.1413 70.9468 79.104C71.0961 79.0667 71.2314 79.0293 71.3528 78.992L71.5488 79.86C71.4274 79.9253 71.2501 79.986 71.0168 80.042C70.7834 80.098 70.5594 80.126 70.3448 80.126Z" fill="#606060"/>
<defs>
<clipPath id="clip0_1806_12549">
<rect width="48.5309" height="40" fill="white" transform="translate(26.2344 16)"/>
</clipPath>
</defs>
</svg>
