<svg  viewBox="0 0 503 420" fill="none" xmlns="http://www.w3.org/2000/svg">
<g clipPath="url(#clip0_1770_11039)">
<path d="M30.7043 289.83C30.7043 289.83 43.5256 299.311 44.4172 316.256L42.0811 316.466C42.0811 316.466 37.989 298.945 30.5835 292.092C23.1781 285.24 30.7043 289.83 30.7043 289.83Z" fill="#599DAD"/>
<path d="M71.7809 250.907C71.7809 250.907 47.6801 237.408 58.9323 219.093C58.9323 219.093 67.9302 207.844 77.5706 204.951C77.5706 204.951 72.4272 232.268 77.5706 232.911C82.7139 233.553 81.1059 202.062 81.1059 202.062C81.1059 202.062 106.492 189.849 116.451 190.814C116.451 190.814 100.706 217.485 105.849 216.842C110.992 216.2 128.665 189.198 128.665 189.198C128.665 189.198 154.693 184.378 158.871 199.804C163.049 215.23 156.301 222.94 152.443 223.905C148.584 224.871 123.845 224.547 124.487 227.76C125.13 230.972 141.841 236.115 151.158 233.211C151.158 233.211 140.875 258.6 127.38 257.315C113.885 256.03 109.704 247.675 101.348 247.029C92.9928 246.382 86.8877 248.637 91.0655 250.887C95.2432 253.138 109.365 251.623 116.132 257.362C122.899 263.101 128.342 266.632 115.809 269.202C103.276 271.772 80.7671 270.168 76.2857 260.527L71.7809 250.907Z" fill="#6BB7BF"/>
<path d="M146.977 204.631C146.977 204.631 79.4948 226.481 71.7817 250.905C71.7817 250.905 72.1049 261.83 65.3574 274.364V279.184C65.3574 279.184 72.4241 262.796 76.2826 260.546C76.2826 260.546 61.1796 239.338 146.977 204.631Z" fill="#6BB7BF"/>
<path d="M65.3567 274.352C65.3567 274.352 54.9493 290.156 60.8791 309.394L63.5579 308.674C63.5579 308.674 60.9609 287.485 66.404 276.829C71.8471 266.172 65.3567 274.352 65.3567 274.352Z" fill="#6BB7BF"/>
<path d="M41.9108 263.212C41.9108 263.212 55.6315 284.046 47.8095 309.405L44.282 308.454C44.282 308.454 47.7043 280.522 40.5286 266.479C33.3529 252.435 41.9108 263.212 41.9108 263.212Z" fill="#6BB7BF"/>
<path d="M19.1963 363.903C27.9516 364.989 36.8376 364.203 45.2662 361.596C53.6948 358.99 61.4737 354.623 68.088 348.785C74.7022 342.947 80.0009 335.77 83.6334 327.73C87.2659 319.69 89.1492 310.971 89.1588 302.148H73.6977C73.6968 317.315 68.1584 331.959 58.1228 343.33C48.0872 354.702 34.2449 362.017 19.1963 363.903V363.903Z" fill="#FFEBDC"/>
<path d="M404.162 249.289C404.162 249.289 377.768 260.935 369.467 290.483L373.493 291.775C373.493 291.775 387.677 262.485 403.473 253.331C419.269 244.177 404.162 249.289 404.162 249.289Z" fill="#599DAD"/>
<path d="M302.775 204.655C302.775 204.655 279.091 243.061 294.599 288.494L300.929 286.59C300.929 286.59 293.228 236.271 305.45 210.484C317.672 184.697 302.775 204.655 302.775 204.655Z" fill="#6BB7BF"/>
<path d="M0 367.562H333.308L403.041 81.8945H69.7367L0 367.562Z" fill="#364154"/>
<path d="M472.898 367.562H139.594L69.8613 81.8945H403.165L472.898 367.562Z" fill="#B8C1C9"/>
<path d="M450.055 351.371H154.533L92.7041 98.0898H388.226L450.055 351.371Z" fill="#EAEAEA"/>
<path d="M144.774 166.03H117.313L111.566 142.494H139.027L144.774 166.03Z" fill="#00A3FE"/>
<path d="M186.33 166.03H158.869L153.122 142.494H180.583L186.33 166.03Z" fill="#00A3FE"/>
<path d="M228.364 166.03H200.903L195.156 142.494H222.617L228.364 166.03Z" fill="#00A3FE"/>
<path d="M270.396 166.03H242.931L237.188 142.494H264.649L270.396 166.03Z" fill="#00A3FE"/>
<path d="M312.427 166.03H284.966L279.219 142.494H306.684L312.427 166.03Z" fill="#00A3FE"/>
<path d="M354.463 166.03H327.002L321.255 142.494H348.716L354.463 166.03Z" fill="#00A3FE"/>
<path d="M396.497 166.03H369.032L363.289 142.494H390.75L396.497 166.03Z" fill="#00A3FE"/>
<path d="M156.226 207.677H128.761L123.019 184.141H150.479L156.226 207.677Z" fill="#00A3FE"/>
<path d="M197.784 207.677H170.319L164.576 184.141H192.037L197.784 207.677Z" fill="#00A3FE"/>
<path d="M239.814 207.677H212.353L206.606 184.141H234.071L239.814 207.677Z" fill="#00A3FE"/>
<path d="M281.849 207.677H254.388L248.642 184.141H276.103L281.849 207.677Z" fill="#00A3FE"/>
<path d="M323.882 207.677H296.421L290.674 184.141H318.135L323.882 207.677Z" fill="#00A3FE"/>
<path d="M365.918 207.677H338.453L332.71 184.141H360.171L365.918 207.677Z" fill="#00A3FE"/>
<path d="M407.947 207.677H380.486L374.739 184.141H402.204L407.947 207.677Z" fill="#00A3FE"/>
<path d="M166.637 248.803H139.176L133.43 225.267H160.891L166.637 248.803Z" fill="#00A3FE"/>
<path d="M208.195 248.803H180.734L174.987 225.267H202.448L208.195 248.803Z" fill="#00A3FE"/>
<path d="M250.228 248.803H222.763L217.021 225.267H244.481L250.228 248.803Z" fill="#00A3FE"/>
<path d="M292.259 248.803H264.798L259.051 225.267H286.512L292.259 248.803Z" fill="#00A3FE"/>
<path d="M334.294 248.803H306.833L301.086 225.267H328.547L334.294 248.803Z" fill="#00A3FE"/>
<path d="M376.326 248.803H348.861L343.118 225.267H370.579L376.326 248.803Z" fill="#00A3FE"/>
<path d="M418.357 248.803H390.896L385.149 225.267H412.614L418.357 248.803Z" fill="#00A3FE"/>
<path d="M177.049 288.887H149.588L143.841 265.351H171.302L177.049 288.887Z" fill="#00A3FE"/>
<path d="M218.604 288.887H191.143L185.396 265.351H212.857L218.604 288.887Z" fill="#00A3FE"/>
<path d="M260.639 288.887H233.175L227.432 265.351H254.893L260.639 288.887Z" fill="#00A3FE"/>
<path d="M302.669 288.887H275.208L269.461 265.351H296.926L302.669 288.887Z" fill="#00A3FE"/>
<path d="M344.705 288.887H317.244L311.497 265.351H338.958L344.705 288.887Z" fill="#00A3FE"/>
<path d="M386.739 288.887H359.278L353.531 265.351H380.992L386.739 288.887Z" fill="#00A3FE"/>
<path d="M428.774 288.887H401.309L395.566 265.351H423.027L428.774 288.887Z" fill="#00A3FE"/>
<path d="M186.94 328.453H159.479L153.732 304.917H181.197L186.94 328.453Z" fill="#00A3FE"/>
<path d="M228.496 328.453H201.035L195.288 304.917H222.753L228.496 328.453Z" fill="#00A3FE"/>
<path d="M270.53 328.453H243.069L237.322 304.917H264.783L270.53 328.453Z" fill="#00A3FE"/>
<path d="M0 367.561L70.7957 353.977L139.594 367.561H0Z" fill="#131F2D"/>
<path d="M128.786 52.0322C120.757 52.039 113.046 55.1732 107.289 60.7701C101.532 66.3671 98.1821 73.9865 97.9492 82.0123H110.288C110.461 78.394 111.692 74.9061 113.828 71.9809C115.965 69.0557 118.913 66.8218 122.307 65.5563C125.701 64.2908 129.392 64.0492 132.923 64.8616C136.453 65.6739 139.667 67.5044 142.166 70.1262C144.666 72.7479 146.341 76.0457 146.984 79.6105C147.627 83.1754 147.21 86.8506 145.784 90.1805C144.358 93.5105 141.987 96.3488 138.963 98.3435C135.939 100.338 132.397 101.402 128.774 101.402C127.951 101.381 127.132 101.526 126.365 101.826C125.599 102.127 124.9 102.578 124.311 103.153C123.721 103.728 123.253 104.415 122.933 105.174C122.613 105.933 122.448 106.748 122.448 107.571C122.448 108.395 122.613 109.21 122.933 109.969C123.253 110.727 123.721 111.414 124.311 111.989C124.9 112.564 125.599 113.015 126.365 113.316C127.132 113.617 127.951 113.761 128.774 113.74C136.895 113.649 144.652 110.359 150.363 104.584C156.073 98.8094 159.276 91.0156 159.276 82.8942C159.276 74.7727 156.073 66.9789 150.363 61.204C144.652 55.4291 136.895 52.139 128.774 52.0478L128.786 52.0322Z" fill="#131F2D"/>
<path d="M206.929 52.0322C198.903 52.043 191.195 55.1789 185.441 60.7753C179.687 66.3717 176.338 73.9888 176.104 82.0123H188.443C188.615 78.3929 189.846 74.9036 191.983 71.9772C194.12 69.0507 197.068 66.8158 200.463 65.5495C203.858 64.2832 207.55 64.0413 211.082 64.8537C214.613 65.666 217.828 67.497 220.329 70.1196C222.829 72.7422 224.505 76.041 225.148 79.6069C225.791 83.1729 225.373 86.8492 223.946 90.1801C222.52 93.5109 220.147 96.3497 217.122 98.3445C214.097 100.339 210.553 101.402 206.929 101.402C205.32 101.442 203.79 102.11 202.666 103.263C201.542 104.415 200.913 105.961 200.913 107.571C200.913 109.181 201.542 110.727 202.666 111.88C203.79 113.032 205.32 113.7 206.929 113.74C211.009 113.786 215.058 113.022 218.841 111.493C222.623 109.963 226.065 107.698 228.966 104.829C231.867 101.96 234.171 98.5445 235.743 94.7793C237.315 91.014 238.124 86.9744 238.124 82.8942C238.124 78.8139 237.315 74.7742 235.743 71.009C234.171 67.2438 231.867 63.8278 228.966 60.9589C226.065 58.09 222.623 55.8252 218.841 54.2956C215.058 52.766 211.009 52.002 206.929 52.0478V52.0322Z" fill="#131F2D"/>
<path d="M285.075 52.0322C277.048 52.042 269.34 55.1776 263.586 60.7742C257.831 66.3708 254.483 73.9885 254.25 82.0123H266.589C266.762 78.394 267.993 74.9061 270.129 71.9809C272.266 69.0557 275.214 66.8218 278.608 65.5563C282.002 64.2908 285.693 64.0492 289.223 64.8616C292.753 65.6739 295.968 67.5044 298.467 70.1262C300.967 72.7479 302.642 76.0457 303.285 79.6105C303.928 83.1754 303.511 86.8506 302.085 90.1805C300.659 93.5105 298.287 96.3488 295.264 98.3435C292.24 100.338 288.697 101.402 285.075 101.402C284.252 101.381 283.433 101.526 282.666 101.826C281.9 102.127 281.201 102.578 280.611 103.153C280.022 103.728 279.553 104.415 279.233 105.174C278.914 105.933 278.749 106.748 278.749 107.571C278.749 108.395 278.914 109.21 279.233 109.969C279.553 110.727 280.022 111.414 280.611 111.989C281.201 112.564 281.9 113.015 282.666 113.316C283.433 113.617 284.252 113.761 285.075 113.74C293.196 113.649 300.953 110.359 306.664 104.584C312.374 98.8094 315.577 91.0156 315.577 82.8942C315.577 74.7727 312.374 66.9789 306.664 61.204C300.953 55.4291 293.196 52.139 285.075 52.0478V52.0322Z" fill="#131F2D"/>
<path d="M363.219 52.0322C355.192 52.043 347.485 55.1789 341.73 60.7753C335.976 66.3717 332.627 73.9888 332.394 82.0123H344.732C344.904 78.3929 346.135 74.9036 348.272 71.9772C350.409 69.0507 353.357 66.8158 356.752 65.5495C360.147 64.2832 363.84 64.0413 367.371 64.8537C370.902 65.666 374.117 67.497 376.618 70.1196C379.118 72.7422 380.794 76.041 381.437 79.6069C382.08 83.1729 381.662 86.8492 380.236 90.1801C378.809 93.5109 376.436 96.3497 373.411 98.3445C370.386 100.339 366.842 101.402 363.219 101.402C361.609 101.442 360.079 102.11 358.955 103.263C357.831 104.415 357.202 105.961 357.202 107.571C357.202 109.181 357.831 110.727 358.955 111.88C360.079 113.032 361.609 113.7 363.219 113.74C367.299 113.786 371.347 113.022 375.13 111.493C378.912 109.963 382.354 107.698 385.255 104.829C388.157 101.96 390.46 98.5445 392.032 94.7793C393.604 91.014 394.413 86.9744 394.413 82.8942C394.413 78.8139 393.604 74.7742 392.032 71.009C390.46 67.2438 388.157 63.8278 385.255 60.9589C382.354 58.09 378.912 55.8252 375.13 54.2956C371.347 52.766 367.299 52.002 363.219 52.0478V52.0322Z" fill="#131F2D"/>
<path d="M69.8613 81.8945L70.7957 353.977L0 367.562L69.8613 81.8945Z" fill="#657285"/>
<path d="M289.693 181.295C300.342 184.387 311.189 184.799 319.774 183.347C328.449 181.891 334.289 177.094 335.831 171.787C337.225 166.975 335.169 161.579 329.878 156.182C334.939 161.353 336.734 167.306 335.465 171.678C334.056 176.534 328.457 180.123 320.113 181.521C311.547 182.954 300.992 182.047 290.37 178.963C279.749 175.879 270.334 170.993 263.875 165.2C257.575 159.554 254.768 153.519 256.178 148.672C257.669 143.532 263.965 138.424 272.558 135.348C282.35 131.844 292.96 132.572 302.986 135.48C321.807 140.931 328.348 147.359 333.553 154.535C328.324 147.328 322.398 139.16 303.511 133.682C293.378 130.761 282.584 131.084 272.643 134.604C263.848 137.746 257.4 143.096 255.812 148.566C254.254 153.877 257.03 160.033 263.599 165.908C270.062 171.709 279.04 178.2 289.693 181.295Z" fill="#131F2D"/>
<path d="M479.655 217.449C479.655 217.449 478.799 225.793 477.856 227.374C476.914 228.955 472.904 233.993 471.198 234.982C469.493 235.971 472.242 228.339 471.891 226.852C471.541 225.365 470.486 229.578 469.734 229.663C468.983 229.749 469.174 225.984 469.147 224.602C469.119 223.219 472.81 219.832 474.111 216.908C475.411 213.984 479.655 217.449 479.655 217.449Z" fill="#FF7955"/>
<path d="M377.145 140.493L375.229 136.876C375.229 136.876 376.179 130.428 368.1 126.363C368.1 126.363 365.149 125.16 363.482 127.566C361.945 129.786 366.406 129.385 366.169 133.181C365.931 136.977 367.726 139.2 370.238 140.438L372.309 142.837L377.145 140.493Z" fill="#FF7955"/>
<path d="M453.493 131.85C453.493 131.85 446.555 165.899 408.375 177.015C396.457 180.488 369.386 141.249 369.386 141.249C369.386 141.249 370.336 137.636 376.301 138.465C376.301 138.465 402.66 155.916 405.981 157.812C408.924 159.494 428.291 136.187 437.129 132.426C445.967 128.665 453.493 131.85 453.493 131.85Z" fill="#016EB9"/>
<path d="M351.87 125.135L350.788 132.182L386.24 137.625L387.322 130.579L351.87 125.135Z" fill="#131F2D"/>
<path d="M343.118 127.407L350.82 132.196L351.902 125.148L343.118 127.407Z" fill="#FF7955"/>
<path d="M391.129 133.562L390.786 135.793C390.736 136.118 390.623 136.431 390.452 136.713C390.281 136.995 390.056 137.24 389.79 137.435C389.524 137.63 389.223 137.771 388.903 137.849C388.583 137.927 388.25 137.942 387.924 137.891L386.281 137.642L387.364 130.591L389.151 130.867C389.458 130.914 389.752 131.021 390.017 131.182C390.283 131.343 390.514 131.555 390.698 131.805C390.881 132.055 391.014 132.339 391.088 132.64C391.162 132.942 391.176 133.255 391.129 133.562V133.562Z" fill="#FF7955"/>
<path d="M499.07 345.895C499.07 345.895 503.804 350.22 502.881 353.292C501.959 356.364 497.683 358.412 497.107 362.166C496.531 365.919 494.218 367.967 492.139 367.967H482.238C482.238 367.967 480.708 365.327 484.403 364.529C488.098 363.731 489.491 359.323 489.262 355.227C489.032 351.131 489.608 345.673 489.608 345.673L497.465 343.854L499.07 345.895Z" fill="#131F2D"/>
<path d="M440.968 357.078C440.968 357.078 441.816 366.913 439.737 367.937L413.125 367.882C413.125 367.882 413.125 364.81 417.408 364.129C421.691 363.448 429.19 360.944 430.463 355.369C431.736 349.793 440.968 357.078 440.968 357.078Z" fill="#131F2D"/>
<path d="M418.498 218.124C418.498 218.124 419.904 235.368 421.554 256.094C423.793 284.248 426.491 318.834 426.756 325.398C427.219 336.775 429.069 354.989 429.069 354.989C429.069 354.989 433.457 359.311 442.237 357.488C442.237 357.488 450.063 331.511 452.298 304.027L452.403 302.668C454.482 274.689 457.713 215.769 457.713 215.769L418.498 218.124Z" fill="#364154"/>
<path d="M418.498 218.126C418.498 218.126 419.904 235.37 421.554 256.095L452.313 303.986L452.418 302.627C454.497 274.648 457.729 215.728 457.729 215.728L418.498 218.126Z" fill="#131F2D"/>
<path d="M424.912 220.175C424.912 220.175 450.22 282.619 466.841 311.965C483.463 341.31 488.676 349.502 488.676 349.502C488.676 349.502 498.204 345.749 499.072 343.187C499.072 343.187 492.71 286.536 481.57 272.714C475.275 264.927 467.881 241.492 467.534 233.3C467.188 225.108 465.284 208.903 465.284 208.903L424.912 220.175Z" fill="#364154"/>
<path d="M458.193 123.942C458.193 123.942 441.062 132.2 431.211 129.136C433.088 126.958 435.352 125.147 437.888 123.794C437.55 121.812 437.281 120.091 437.11 118.635C436.874 116.888 436.735 115.129 436.693 113.367L443.312 108.173L449.577 103.201C449.086 117.179 458.193 123.942 458.193 123.942Z" fill="#FF7955"/>
<path d="M467.214 212.113C467.253 213.157 465.014 214.352 464.025 214.804C456.702 218.016 449.869 220.255 442.128 221.006C432.982 221.941 422.162 219.885 418.444 219.959C418.067 219.957 417.703 219.819 417.42 219.569C417.155 219.379 416.965 208.356 417.155 194.491C417.155 193.931 417.155 193.37 417.194 192.809V192.587C417.268 187.168 417.459 181.491 417.724 175.81C418.257 163.328 419.242 151.281 420.913 144.643C422.922 136.793 427.477 131.599 431.616 127.823L435.03 124.836C438.615 125.61 442.355 125.161 445.656 123.563C449.604 121.659 453.856 119.604 454.537 120.125C459.7 123.902 463.192 132.382 465.049 143.222C466.157 150.016 466.678 156.892 466.607 163.775C466.607 166.466 466.533 169.226 466.381 171.952C465.47 186.747 466.381 199.596 466.911 207.044C467.055 209.232 467.175 210.914 467.214 212.113Z" fill="#00A3FE"/>
<path d="M466.911 211.432C406.974 211.311 455.857 146.391 455.857 146.391L465.568 143.237C466.369 150.529 466.744 157.861 466.693 165.197C466.693 168.07 466.638 171.037 466.525 173.942C465.887 189.753 466.525 203.489 466.911 211.432Z" fill="#016EB9"/>
<path d="M449.696 108.546C449.696 108.546 445.37 116.43 437.131 118.634C436.895 116.887 436.756 115.128 436.715 113.366L443.334 108.172L449.696 108.546Z" fill="#EF6343"/>
<path d="M433.702 113.139C433.702 113.139 450.031 115.81 451.561 105.772C453.092 95.7348 456.234 89.3183 445.873 87.1885C435.512 85.0588 432.9 88.5863 431.56 91.8179C430.221 95.0495 429.493 112.185 433.702 113.139Z" fill="#FF7955"/>
<path d="M457.501 85.983C457.649 85.8156 457.988 85.6754 458.751 85.6365C458.316 85.3932 457.828 85.2596 457.33 85.2472C457.171 84.1881 456.606 82.3153 454.788 81.8598C455.084 82.0336 455.337 82.2719 455.529 82.5571C455.72 82.8422 455.845 83.1668 455.893 83.5068C453.783 81.342 449.274 79.7651 436.749 80.754C420.256 82.0545 425.695 92.6137 427.829 93.8713C429.963 95.1289 435.34 91.6792 439.315 91.9946C443.29 92.31 444.049 98.0607 445.4 98.8472C446.751 99.6337 446.218 98.2437 448.044 97.4183C449.87 96.5928 450.045 99.6181 449.516 101.584C448.986 103.551 451.482 106.151 451.482 106.151L454.017 103.426C456.555 100.701 458.942 89.129 457.79 86.6644L457.501 85.983Z" fill="#131F2D"/>
<path d="M454.533 120.06C454.533 120.06 464.863 124.95 469.815 132.472C477.501 144.153 486.406 186.658 486.558 190.594C486.709 194.531 480.055 222.33 480.055 222.33C480.055 222.33 473.296 221.883 471.552 218.472C471.552 218.472 472.903 189.913 472.046 188.075C471.19 186.238 443.881 149.759 446.953 141.972C450.025 134.185 454.533 120.06 454.533 120.06Z" fill="#00A3FE"/>
<path d="M375.196 136.705C375.196 136.705 375.757 134.485 374.215 133.489C372.673 132.492 371.26 129.778 370.614 130.144C369.266 130.923 371.349 133.259 370.968 136.226C370.836 137.261 373.242 139.967 375.196 136.705Z" fill="#FF7955"/>
</g>
<defs>
<clipPath id="clip0_1770_11039">
<rect width="503" height="420" fill="white"/>
</clipPath>
</defs>
</svg>
