<svg width="725" height="720" viewBox="0 0 725 720" fill="none" xmlns="http://www.w3.org/2000/svg">
<rect width="725" height="720" fill="#3389FF"/>
<g clip-path="url(#clip0_321_1372)">
<path d="M37.8263 592.382C37.7778 592.169 33.0871 570.779 42.6667 553.013C52.2463 535.248 72.6947 527.414 72.9002 527.336L73.8347 526.986L74.0555 527.96C74.104 528.174 78.7946 549.563 69.2151 567.329C59.6359 585.094 39.1871 592.928 38.9816 593.006L38.0466 593.356L37.8263 592.382ZM72.553 529.363C68.4571 531.125 52.2913 538.836 44.2006 553.84C36.109 568.846 38.5503 586.591 39.3287 590.979C43.423 589.222 59.5824 581.522 67.6812 566.502C75.7723 551.497 73.3319 533.754 72.553 529.363V529.363Z" fill="#F1F1F1"/>
<path d="M61.8945 561.097C44.6795 571.454 38.0494 592.027 38.0494 592.027C38.0494 592.027 59.3304 595.806 76.5454 585.449C93.7604 575.092 100.39 554.52 100.39 554.52C100.39 554.52 79.1094 550.74 61.8945 561.097Z" fill="#F1F1F1"/>
<path d="M322.594 395.064C322.856 393.709 322.818 392.313 322.483 390.974C322.147 389.635 321.522 388.386 320.652 387.315C319.781 386.244 318.687 385.376 317.445 384.774C316.203 384.172 314.844 383.849 313.464 383.829L305.492 363.781L292.127 365.654L303.783 393.807C303.902 396.128 304.869 398.324 306.5 399.98C308.13 401.636 310.311 402.636 312.63 402.791C314.949 402.946 317.244 402.245 319.08 400.821C320.916 399.397 322.167 397.348 322.594 395.064Z" fill="#9F616A"/>
<path d="M297.972 388.02L293.831 378.145L268.025 329.024L269.428 238.132L269.697 238.096C286.21 235.914 297.382 311.997 297.85 315.237L314.154 370.999L318.035 383.29L297.972 388.02Z" fill="#4B96FD"/>
<path d="M258.32 579.68L270.867 579.679L276.835 531.285L258.318 531.285L258.32 579.68Z" fill="#9F616A"/>
<path d="M255.119 575.584L279.829 575.583H279.83C284.006 575.583 288.011 577.242 290.964 580.195C293.917 583.148 295.576 587.153 295.576 591.329V591.841L255.12 591.843L255.119 575.584Z" fill="#2F2E41"/>
<path d="M142.956 560.564L153.251 567.737L185.817 531.446L170.624 520.858L142.956 560.564Z" fill="#9F616A"/>
<path d="M142.673 555.374L162.945 569.5L162.946 569.501C166.372 571.889 168.71 575.54 169.444 579.651C170.178 583.762 169.25 587.996 166.862 591.423L166.57 591.842L133.377 568.713L142.673 555.374Z" fill="#2F2E41"/>
<path d="M251.424 568.305L250.882 477.519L242.988 420.434L228.269 470.635L228.241 470.676L174.903 548.111L154.148 537.596L154.262 537.326C155.531 534.309 185.417 463.455 193.451 463.455C194.152 463.504 194.855 463.382 195.499 463.099C196.143 462.816 196.708 462.381 197.146 461.831C199.504 458.683 197.584 452.002 197.565 451.935C195.265 442.399 201.047 439.151 202.199 438.609L205.296 374.667L205.617 374.689L289.59 380.579L286.067 460.524L278.489 565.267L278.228 565.297L251.424 568.305Z" fill="#2F2E41"/>
<path d="M290.873 394.748L290.51 394.719L200.199 387.439L200.422 357.558L204.842 279.536L204.867 279.482L222.868 240.402L235.629 234.624L254.246 233.644L254.291 233.656L271.282 237.865L288.956 364.743L290.873 394.748Z" fill="#4B96FD"/>
<path d="M257.163 223.629C268.686 217.33 272.921 202.883 266.622 191.36C260.323 179.837 245.876 175.602 234.353 181.901C222.83 188.2 218.595 202.647 224.894 214.17C231.193 225.693 245.641 229.928 257.163 223.629Z" fill="#9F616A"/>
<path d="M221.845 208.734V199.469C221.845 199.469 214.374 190.67 222.592 188.454C222.592 188.454 224.834 166.288 244.259 176.632C244.259 176.632 271.155 172.199 268.166 187.715C268.166 187.715 274.89 183.664 272.649 194.008L268.314 210.67C268.314 210.67 270.408 199.664 263.684 198.186L259.948 195.969C259.948 195.969 249.488 206.313 233.799 193.753C233.799 193.753 227.075 192.148 227.822 198.798C228.569 205.447 221.845 208.734 221.845 208.734Z" fill="#2F2E41"/>
<path d="M243.282 372.434C243.297 371.053 243.01 369.687 242.439 368.43C241.869 367.173 241.03 366.056 239.982 365.159C238.933 364.261 237.7 363.604 236.371 363.235C235.041 362.865 233.646 362.791 232.285 363.019L220.845 344.727L208.033 348.968L224.552 374.573C225.086 376.834 226.431 378.822 228.332 380.158C230.233 381.494 232.558 382.087 234.867 381.823C237.176 381.559 239.308 380.458 240.859 378.727C242.41 376.997 243.272 374.757 243.282 372.434Z" fill="#9F616A"/>
<path d="M213.734 366.668L193.037 324.647L193.056 324.544C193.139 324.079 201.47 277.82 207.842 260.816C214.255 243.705 223.032 240.27 223.402 240.132L223.587 240.063L231.458 247.612L220.556 320.379L232.307 355.473L213.734 366.668Z" fill="#4B96FD"/>
<path d="M725 157.457H684.926V197.531H725V157.457Z" fill="#F1F1F1"/>
<path d="M411.376 313.398H371.302V353.472H411.376V313.398Z" fill="#F1F1F1"/>
<path d="M393.794 335.911H710.62V175.52H393.794V335.911Z" fill="white"/>
<path d="M713.234 338.525H391.181V172.906H713.234V338.525ZM396.408 333.298H708.007V178.133H396.408V333.298Z" fill="#E5E5E5"/>
<path d="M675.585 231.782H431.824V239.866H675.585V231.782Z" fill="#E5E5E5"/>
<path d="M675.585 251.386H431.824V259.47H675.585V251.386Z" fill="#E5E5E5"/>
<path d="M675.585 280.332H630.284V287.348H675.585V280.332Z" fill="#3389FF"/>
<path d="M332.79 593.321H0.871178C0.640128 593.321 0.418539 593.229 0.255162 593.066C0.0917839 592.903 0 592.681 0 592.45C0 592.219 0.0917839 591.997 0.255162 591.834C0.418539 591.67 0.640128 591.579 0.871178 591.579H332.79C333.021 591.579 333.243 591.67 333.406 591.834C333.57 591.997 333.661 592.219 333.661 592.45C333.661 592.681 333.57 592.903 333.406 593.066C333.243 593.229 333.021 593.321 332.79 593.321Z" fill="#CBCBCB"/>
</g>
<defs>
<clipPath id="clip0_321_1372">
<rect width="725" height="435.9" fill="white" transform="translate(0 157.457)"/>
</clipPath>
</defs>
</svg>
