<svg width="229" height="223" viewBox="0 0 229 223" fill="none" xmlns="http://www.w3.org/2000/svg">
<g clip-path="url(#clip0_1459_5600)">
<path d="M145.446 50.0293H84.0375C82.6381 50.031 81.2965 50.5877 80.307 51.5772C79.3175 52.5667 78.7608 53.9083 78.7591 55.3077V191.788L78.0553 192.002L62.991 196.616C62.277 196.833 61.5059 196.759 60.8468 196.409C60.1878 196.058 59.6946 195.461 59.4757 194.747L14.666 48.379C14.448 47.665 14.5223 46.8937 14.8727 46.2345C15.2231 45.5753 15.8208 45.0823 16.5346 44.8636L39.7488 37.7555L107.048 17.1559L130.262 10.0477C130.615 9.93899 130.986 9.901 131.354 9.93591C131.722 9.97082 132.08 10.078 132.406 10.2512C132.733 10.4244 133.022 10.6603 133.257 10.9454C133.492 11.2305 133.669 11.5592 133.777 11.9127L145.231 49.3256L145.446 50.0293Z" fill="#F2F2F2"/>
<path d="M158.846 49.3257L145.041 4.23464C144.811 3.48334 144.436 2.78465 143.936 2.17852C143.436 1.57238 142.822 1.07067 142.128 0.70205C141.434 0.333432 140.675 0.105128 139.893 0.0301934C139.111 -0.0447409 138.322 0.0351627 137.57 0.26533L104.933 10.2555L37.6376 30.8586L4.99995 40.8522C3.48377 41.3178 2.21426 42.3659 1.47006 43.7665C0.725866 45.1671 0.567788 46.8058 1.03053 48.3228L48.2118 202.425C48.5877 203.65 49.3462 204.722 50.376 205.484C51.4058 206.246 52.6527 206.657 53.9336 206.659C54.5265 206.659 55.116 206.57 55.6824 206.395L78.0555 199.547L78.7593 199.329V198.593L78.0555 198.808L55.4749 205.723C54.1366 206.131 52.6911 205.991 51.4555 205.335C50.2199 204.678 49.2951 203.559 48.884 202.221L1.7063 48.1152C1.50259 47.4526 1.43159 46.7562 1.49737 46.0661C1.56315 45.376 1.7644 44.7056 2.08963 44.0934C2.41485 43.4812 2.85765 42.9392 3.39266 42.4983C3.92767 42.0575 4.54439 41.7265 5.2075 41.5243L37.8452 31.5307L105.14 10.9311L137.778 0.937444C138.281 0.78395 138.804 0.705687 139.33 0.705196C140.458 0.70773 141.557 1.07157 142.463 1.74342C143.37 2.41527 144.038 3.35982 144.369 4.43874L158.11 49.3257L158.328 50.0295H159.06L158.846 49.3257Z" fill="#3F3D56"/>
<path d="M43.9378 44.9791C43.2596 44.9786 42.5994 44.7608 42.054 44.3576C41.5087 43.9544 41.1069 43.387 40.9076 42.7387L36.3752 27.9341C36.2534 27.5365 36.2111 27.1187 36.2508 26.7047C36.2905 26.2907 36.4113 25.8885 36.6064 25.5212C36.8016 25.1539 37.0671 24.8287 37.388 24.564C37.7088 24.2994 38.0786 24.1005 38.4763 23.9788L100.387 5.02475C101.19 4.77967 102.058 4.86325 102.8 5.25716C103.541 5.65106 104.096 6.3231 104.343 7.12577L108.875 21.9305C109.12 22.7337 109.037 23.6012 108.643 24.3427C108.249 25.0843 107.577 25.6393 106.774 25.886L44.8631 44.8401C44.5633 44.9321 44.2515 44.9789 43.9378 44.9791V44.9791Z" fill="#84B7FF"/>
<path d="M67.6808 15.8192C71.5677 15.8192 74.7186 12.6683 74.7186 8.78143C74.7186 4.89457 71.5677 1.74365 67.6808 1.74365C63.794 1.74365 60.6431 4.89457 60.6431 8.78143C60.6431 12.6683 63.794 15.8192 67.6808 15.8192Z" fill="#84B7FF"/>
<path d="M67.6807 13.2378C70.1419 13.2378 72.1372 11.2425 72.1372 8.78125C72.1372 6.31997 70.1419 4.32471 67.6807 4.32471C65.2194 4.32471 63.2241 6.31997 63.2241 8.78125C63.2241 11.2425 65.2194 13.2378 67.6807 13.2378Z" fill="white"/>
<path d="M212.829 204.86H93.8905C93.0975 204.859 92.3372 204.544 91.7765 203.983C91.2157 203.423 90.9003 202.662 90.8994 201.869V59.3543C90.9003 58.5613 91.2157 57.8011 91.7765 57.2403C92.3372 56.6796 93.0975 56.3642 93.8905 56.3633H212.829C213.622 56.3642 214.382 56.6796 214.943 57.2404C215.504 57.8011 215.819 58.5613 215.82 59.3543V201.869C215.819 202.662 215.504 203.423 214.943 203.983C214.382 204.544 213.622 204.859 212.829 204.86V204.86Z" fill="#E6E6E6"/>
<path d="M158.11 49.3257H84.0375C82.4517 49.3279 80.9314 49.9589 79.81 51.0803C78.6886 52.2017 78.0577 53.7219 78.0554 55.3078V198.808L78.7592 198.593V55.3078C78.7609 53.9084 79.3176 52.5668 80.3071 51.5773C81.2966 50.5878 82.6382 50.0312 84.0375 50.0295H158.328L158.11 49.3257ZM222.682 49.3257H84.0375C82.4517 49.3279 80.9314 49.9589 79.81 51.0803C78.6886 52.2017 78.0577 53.7219 78.0554 55.3078V216.473C78.0577 218.059 78.6886 219.579 79.81 220.7C80.9314 221.822 82.4517 222.453 84.0375 222.455H222.682C224.268 222.453 225.788 221.822 226.909 220.7C228.031 219.579 228.662 218.059 228.664 216.473V55.3078C228.662 53.7219 228.031 52.2017 226.909 51.0803C225.788 49.9589 224.268 49.3279 222.682 49.3257V49.3257ZM227.96 216.473C227.958 217.872 227.402 219.214 226.412 220.203C225.423 221.193 224.081 221.75 222.682 221.751H84.0375C82.6382 221.75 81.2966 221.193 80.3071 220.203C79.3176 219.214 78.7609 217.872 78.7592 216.473V55.3078C78.7609 53.9084 79.3176 52.5668 80.3071 51.5773C81.2966 50.5878 82.6382 50.0312 84.0375 50.0295H222.682C224.081 50.0312 225.423 50.5878 226.412 51.5773C227.402 52.5668 227.958 53.9084 227.96 55.3078V216.473Z" fill="#3F3D56"/>
<path d="M185.733 64.8088H120.986C120.146 64.8079 119.341 64.4739 118.747 63.8802C118.154 63.2864 117.82 62.4815 117.819 61.6418V46.1587C117.82 45.319 118.154 44.5141 118.747 43.9203C119.341 43.3266 120.146 42.9926 120.986 42.9917H185.733C186.573 42.9926 187.378 43.3266 187.972 43.9203C188.565 44.5141 188.899 45.319 188.9 46.1587V61.6418C188.899 62.4815 188.566 63.2864 187.972 63.8802C187.378 64.4739 186.573 64.8079 185.733 64.8088V64.8088Z" fill="#84B7FF"/>
<path d="M153.36 44.0472C157.246 44.0472 160.397 40.8963 160.397 37.0095C160.397 33.1226 157.246 29.9717 153.36 29.9717C149.473 29.9717 146.322 33.1226 146.322 37.0095C146.322 40.8963 149.473 44.0472 153.36 44.0472Z" fill="#84B7FF"/>
<path d="M153.36 41.2965C155.727 41.2965 157.646 39.3773 157.646 37.0098C157.646 34.6423 155.727 32.7231 153.36 32.7231C150.992 32.7231 149.073 34.6423 149.073 37.0098C149.073 39.3773 150.992 41.2965 153.36 41.2965Z" fill="white"/>
<path d="M153.83 142.644C152.665 142.644 151.746 142.264 151.074 141.502C150.402 140.74 150.066 139.732 150.066 138.478C150.066 137.268 150.201 136.148 150.469 135.118C150.783 134.043 151.253 132.99 151.881 131.959C152.553 130.884 153.426 129.809 154.502 128.734C155.218 127.972 155.778 127.3 156.182 126.718C156.63 126.135 156.943 125.598 157.122 125.105C157.302 124.567 157.391 124.03 157.391 123.492C157.391 122.462 157.01 121.678 156.249 121.14C155.487 120.602 154.39 120.334 152.956 120.334C151.522 120.334 150.178 120.49 148.924 120.804C147.669 121.118 146.46 121.588 145.295 122.215C143.951 122.932 142.764 123.178 141.733 122.954C140.703 122.686 139.897 122.148 139.314 121.342C138.732 120.535 138.396 119.594 138.306 118.519C138.261 117.444 138.552 116.391 139.18 115.361C139.852 114.33 140.882 113.479 142.271 112.807C144.108 111.911 146.057 111.262 148.117 110.858C150.178 110.41 152.105 110.186 153.897 110.186C156.988 110.186 159.698 110.679 162.028 111.665C164.403 112.65 166.239 114.039 167.539 115.831C168.838 117.578 169.487 119.639 169.487 122.014C169.487 123.358 169.286 124.635 168.883 125.844C168.479 127.054 167.83 128.241 166.934 129.406C166.038 130.526 164.783 131.668 163.17 132.833C161.782 133.863 160.706 134.782 159.945 135.588C159.183 136.35 158.623 137.089 158.265 137.806C157.951 138.523 157.705 139.307 157.526 140.158C157.346 140.875 156.966 141.48 156.383 141.972C155.801 142.42 154.95 142.644 153.83 142.644ZM153.628 158.705C151.567 158.705 149.932 158.101 148.722 156.891C147.557 155.681 146.975 154.091 146.975 152.12C146.975 150.193 147.557 148.648 148.722 147.483C149.932 146.273 151.567 145.668 153.628 145.668C155.689 145.668 157.302 146.273 158.466 147.483C159.631 148.648 160.214 150.193 160.214 152.12C160.214 154.091 159.631 155.681 158.466 156.891C157.302 158.101 155.689 158.705 153.628 158.705Z" fill="#BFBFBF"/>
</g>
<defs>
<clipPath id="clip0_1459_5600">
<rect width="227.896" height="222.455" fill="white" transform="translate(0.767822)"/>
</clipPath>
</defs>
</svg>
