<svg width="278" height="291" viewBox="0 0 278 291" fill="none" xmlns="http://www.w3.org/2000/svg">
<g opacity="0.7">
<g clip-path="url(#clip0_1456_5411)">
<path d="M107.393 290.5C166.704 290.5 214.786 282.006 214.786 271.528C214.786 261.05 166.704 252.556 107.393 252.556C48.0814 252.556 0 261.05 0 271.528C0 282.006 48.0814 290.5 107.393 290.5Z" fill="#3F3D56"/>
<path d="M172.664 209.912C230.63 209.912 277.62 162.922 277.62 104.956C277.62 46.9904 230.63 0 172.664 0C114.698 0 67.708 46.9904 67.708 104.956C67.708 162.922 114.698 209.912 172.664 209.912Z" fill="#3F3D56"/>
<path opacity="0.05" d="M172.664 191.601C220.516 191.601 259.309 152.808 259.309 104.956C259.309 57.1036 220.516 18.3115 172.664 18.3115C124.812 18.3115 86.0195 57.1036 86.0195 104.956C86.0195 152.808 124.812 191.601 172.664 191.601Z" fill="black"/>
<path opacity="0.05" d="M172.664 175.969C211.883 175.969 243.677 144.175 243.677 104.956C243.677 65.7369 211.883 33.9434 172.664 33.9434C133.445 33.9434 101.651 65.7369 101.651 104.956C101.651 144.175 133.445 175.969 172.664 175.969Z" fill="black"/>
<path opacity="0.05" d="M172.664 155.871C200.783 155.871 223.579 133.075 223.579 104.956C223.579 76.8363 200.783 54.041 172.664 54.041C144.544 54.041 121.749 76.8363 121.749 104.956C121.749 133.075 144.544 155.871 172.664 155.871Z" fill="black"/>
<path d="M68.6376 114.349C68.6376 114.349 60.386 137.576 64.0533 145.828C67.7207 154.079 73.5275 162.025 73.5275 162.025C73.5275 162.025 71.3881 115.877 68.6376 114.349Z" fill="#D0CDE1"/>
<path opacity="0.1" d="M68.6376 114.349C68.6376 114.349 60.386 137.576 64.0533 145.828C67.7207 154.079 73.5275 162.025 73.5275 162.025C73.5275 162.025 71.3881 115.877 68.6376 114.349Z" fill="black"/>
<path d="M74.444 168.137C74.444 168.137 73.8328 173.944 73.5272 174.249C73.2216 174.555 73.8328 175.166 73.5272 176.083C73.2216 177 72.916 178.222 73.5272 178.528C74.1384 178.834 70.1654 205.728 70.1654 205.728C70.1654 205.728 60.3857 218.564 64.3587 238.734L65.5812 259.211C65.5812 259.211 75.0553 259.822 75.0553 256.46C75.0553 256.46 74.444 252.487 74.444 250.653C74.444 248.82 75.9721 248.82 75.0553 247.903C74.1384 246.986 74.1384 246.375 74.1384 246.375C74.1384 246.375 75.6665 245.152 75.3609 244.847C75.0553 244.541 78.1114 222.842 78.1114 222.842C78.1114 222.842 81.4732 219.481 81.4732 217.647V215.813C81.4732 215.813 83.0013 211.84 83.0013 211.535C83.0013 211.229 91.2529 192.586 91.2529 192.586L94.6147 206.034L98.2821 225.287C98.2821 225.287 100.116 242.707 103.783 249.431C103.783 249.431 110.201 271.435 110.201 270.824C110.201 270.213 120.898 268.685 120.592 265.934C120.286 263.184 114.174 224.676 114.174 224.676L115.702 167.526L74.444 168.137Z" fill="#2F2E41"/>
<path d="M66.1926 257.683C66.1926 257.683 57.9409 273.881 63.442 274.492C68.9431 275.103 71.0824 275.103 73.5274 272.658C74.864 271.322 77.5708 269.528 79.7501 268.177C81.0414 267.389 82.0846 266.254 82.7599 264.9C83.4353 263.547 83.7155 262.03 83.5685 260.525C83.4074 259.03 82.8487 257.798 81.4734 257.683C77.806 257.377 73.5274 254.016 73.5274 254.016L66.1926 257.683Z" fill="#2F2E41"/>
<path d="M111.729 269.602C111.729 269.602 103.478 285.8 108.979 286.411C114.48 287.022 116.619 287.022 119.064 284.577C120.401 283.241 123.108 281.447 125.287 280.096C126.578 279.308 127.621 278.173 128.297 276.819C128.972 275.466 129.252 273.949 129.105 272.444C128.944 270.949 128.386 269.717 127.01 269.602C123.343 269.296 119.064 265.935 119.064 265.935L111.729 269.602Z" fill="#2F2E41"/>
<path d="M103.008 87.8419C110.104 87.8419 115.855 82.0901 115.855 74.9949C115.855 67.8997 110.104 62.1479 103.008 62.1479C95.9132 62.1479 90.1614 67.8997 90.1614 74.9949C90.1614 82.0901 95.9132 87.8419 103.008 87.8419Z" fill="#FFB8B8"/>
<path d="M94.7495 79.2158C94.7495 79.2158 85.573 96.1004 84.8389 96.1004C84.1048 96.1004 101.356 101.606 101.356 101.606C101.356 101.606 106.128 85.4558 106.862 83.9875L94.7495 79.2158Z" fill="#FFB8B8"/>
<path d="M108.826 97.6928C108.826 97.6928 90.489 87.6074 88.6553 87.9131C86.8216 88.2187 67.2621 105.333 67.5678 112.362C67.8734 119.392 70.3183 131.005 70.3183 131.005C70.3183 131.005 71.2351 163.4 73.0688 163.706C74.9025 164.012 72.7632 169.513 73.3745 169.513C73.9857 169.513 116.161 169.513 116.466 168.596C116.772 167.679 108.826 97.6928 108.826 97.6928Z" fill="#D0CDE1"/>
<path d="M119.064 170.276C119.064 170.276 124.871 188.002 119.981 187.391C115.091 186.78 112.952 172.11 112.952 172.11L119.064 170.276Z" fill="#FFB8B8"/>
<path d="M103.478 96.6231C103.478 96.6231 92.1699 99.068 94.0036 114.349C95.8373 129.63 99.1991 144.91 99.1991 144.91L110.507 169.665L111.729 174.25L119.981 172.11L113.869 136.659C113.869 136.659 111.729 98.7624 108.979 97.5399C107.244 96.8005 105.358 96.4861 103.478 96.6231Z" fill="#D0CDE1"/>
<path opacity="0.1" d="M96.6011 144.452L110.66 169.513L98.8151 143.106L96.6011 144.452Z" fill="black"/>
<path d="M115.798 71.2122L115.841 70.2305L117.794 70.7166C117.773 70.4014 117.684 70.0946 117.533 69.8172C117.381 69.5398 117.172 69.2985 116.919 69.11L118.999 68.9937C117.253 66.5131 115.023 64.4121 112.443 62.8175C109.863 61.2229 106.986 60.1678 103.987 59.716C99.4869 59.0638 94.4767 60.0076 91.3912 63.347C89.8945 64.9667 88.9542 67.0266 88.2852 69.128C87.0531 72.9984 86.8021 77.6122 89.3712 80.7582C91.9822 83.9557 96.543 84.5821 100.652 84.9778C102.098 85.117 103.613 85.2466 104.953 84.6856C105.102 83.1488 104.905 81.5982 104.377 80.1473C104.157 79.6982 104.052 79.2015 104.071 78.7018C104.254 77.4793 105.884 77.1714 107.109 77.3365C108.334 77.5017 109.807 77.7544 110.612 76.8163C111.167 76.1702 111.134 75.2293 111.207 74.381C111.407 72.0718 115.777 71.6963 115.798 71.2122Z" fill="#2F2E41"/>
<path d="M194.595 274.139C202.862 274.139 209.564 267.437 209.564 259.17C209.564 250.903 202.862 244.201 194.595 244.201C186.328 244.201 179.626 250.903 179.626 259.17C179.626 267.437 186.328 274.139 194.595 274.139Z" fill="#84B7FF"/>
<path d="M18.7982 268.917C27.0653 268.917 33.767 262.215 33.767 253.948C33.767 245.681 27.0653 238.979 18.7982 238.979C10.5311 238.979 3.82935 245.681 3.82935 253.948C3.82935 262.215 10.5311 268.917 18.7982 268.917Z" fill="#84B7FF"/>
<path d="M18.7981 244.897C24.7581 244.897 29.5896 240.066 29.5896 234.106C29.5896 228.146 24.7581 223.314 18.7981 223.314C12.8381 223.314 8.00659 228.146 8.00659 234.106C8.00659 240.066 12.8381 244.897 18.7981 244.897Z" fill="#84B7FF"/>
<path d="M18.7981 225.055C23.0278 225.055 26.4566 221.626 26.4566 217.396C26.4566 213.167 23.0278 209.738 18.7981 209.738C14.5685 209.738 11.1396 213.167 11.1396 217.396C11.1396 221.626 14.5685 225.055 18.7981 225.055Z" fill="#84B7FF"/>
</g>
</g>
<defs>
<clipPath id="clip0_1456_5411">
<rect width="277.62" height="290.5" fill="white"/>
</clipPath>
</defs>
</svg>
