<svg width="101" height="101" viewBox="0 0 101 101" fill="none" xmlns="http://www.w3.org/2000/svg">
<rect width="101" height="101" rx="4" fill="white"/>
<path d="M50.4998 35.9997C51.4165 35.9997 52.2015 35.673 52.8548 35.0197C53.5071 34.3675 53.8332 33.583 53.8332 32.6663C53.8332 31.7497 53.5071 30.9647 52.8548 30.3113C52.2015 29.6591 51.4165 29.333 50.4998 29.333C49.5832 29.333 48.7987 29.6591 48.1465 30.3113C47.4932 30.9647 47.1665 31.7497 47.1665 32.6663C47.1665 33.583 47.4932 34.3675 48.1465 35.0197C48.7987 35.673 49.5832 35.9997 50.4998 35.9997ZM50.4998 52.0413C50.2776 52.0413 50.0554 51.9997 49.8332 51.9163C49.6109 51.833 49.4165 51.7219 49.2498 51.583C45.1943 47.9997 42.1665 44.6736 40.1665 41.6047C38.1665 38.5347 37.1665 35.6663 37.1665 32.9997C37.1665 28.833 38.5071 25.5136 41.1882 23.0413C43.8682 20.5691 46.9721 19.333 50.4998 19.333C54.0276 19.333 57.1315 20.5691 59.8115 23.0413C62.4926 25.5136 63.8332 28.833 63.8332 32.9997C63.8332 35.6663 62.8332 38.5347 60.8332 41.6047C58.8332 44.6736 55.8054 47.9997 51.7498 51.583C51.5832 51.7219 51.3887 51.833 51.1665 51.9163C50.9443 51.9997 50.7221 52.0413 50.4998 52.0413Z" fill="#00AC47"/>
<path d="M34.362 80.126C33.4473 80.126 32.6493 79.9207 31.968 79.51C31.296 79.09 30.7733 78.502 30.4 77.746C30.036 76.99 29.854 76.094 29.854 75.058C29.854 74.022 30.036 73.126 30.4 72.37C30.764 71.614 31.282 71.0307 31.954 70.62C32.6353 70.2093 33.438 70.004 34.362 70.004C35.2953 70.004 36.098 70.2093 36.77 70.62C37.4513 71.0307 37.974 71.614 38.338 72.37C38.7113 73.1167 38.898 74.008 38.898 75.044C38.898 76.08 38.7113 76.9807 38.338 77.746C37.9647 78.502 37.4373 79.09 36.756 79.51C36.084 79.9207 35.286 80.126 34.362 80.126ZM34.362 79.104C35.4167 79.104 36.2333 78.7493 36.812 78.04C37.3907 77.3307 37.68 76.3367 37.68 75.058C37.68 73.7793 37.3907 72.79 36.812 72.09C36.2333 71.3807 35.4167 71.026 34.362 71.026C33.326 71.026 32.5187 71.3807 31.94 72.09C31.3613 72.79 31.072 73.7793 31.072 75.058C31.072 76.3273 31.3613 77.3213 31.94 78.04C32.5187 78.7493 33.326 79.104 34.362 79.104ZM41.1604 80V74.078H39.8164V73.196H41.1604V72.958C41.1604 72.0527 41.3844 71.3667 41.8324 70.9C42.2898 70.4333 42.9898 70.172 43.9324 70.116L44.4784 70.088L44.5764 70.956L43.9324 70.998C43.3538 71.0447 42.9338 71.2173 42.6724 71.516C42.4204 71.8147 42.2944 72.2487 42.2944 72.818V73.196H44.2544V74.078H42.2944V80H41.1604ZM45.6038 80V74.078H44.2598V73.196H45.6038V72.958C45.6038 72.0527 45.8278 71.3667 46.2758 70.9C46.7331 70.4333 47.4331 70.172 48.3758 70.116L48.9218 70.088L49.0198 70.956L48.3758 70.998C47.7971 71.0447 47.3771 71.2173 47.1158 71.516C46.8638 71.8147 46.7378 72.2487 46.7378 72.818V73.196H48.6978V74.078H46.7378V80H45.6038ZM51.9878 80.126C51.2971 80.126 50.7744 79.9253 50.4198 79.524C50.0744 79.1133 49.9018 78.5207 49.9018 77.746V70.13H51.0358V77.662C51.0358 78.6607 51.4324 79.16 52.2258 79.16C52.4591 79.16 52.6691 79.132 52.8558 79.076L52.8278 80.028C52.5384 80.0933 52.2584 80.126 51.9878 80.126ZM53.9045 71.502V70.228H55.3045V71.502H53.9045ZM54.0445 80V73.196H55.1785V80H54.0445ZM57.2984 80V73.196H58.4044V74.358C58.6284 73.9287 58.9457 73.6067 59.3564 73.392C59.767 73.1773 60.229 73.07 60.7424 73.07C62.357 73.07 63.1644 73.966 63.1644 75.758V80H62.0304V75.828C62.0304 75.1933 61.9044 74.7313 61.6524 74.442C61.4097 74.1433 61.0177 73.994 60.4764 73.994C59.851 73.994 59.3517 74.19 58.9784 74.582C58.6144 74.9647 58.4324 75.478 58.4324 76.122V80H57.2984ZM68.3214 80.126C67.2481 80.126 66.3987 79.8133 65.7734 79.188C65.1481 78.5533 64.8354 77.6947 64.8354 76.612C64.8354 75.912 64.9754 75.296 65.2554 74.764C65.5354 74.2227 65.9181 73.8073 66.4034 73.518C66.8981 73.2193 67.4674 73.07 68.1114 73.07C69.0354 73.07 69.7587 73.3687 70.2814 73.966C70.8041 74.554 71.0654 75.366 71.0654 76.402V76.836H65.9414C65.9787 77.6107 66.2027 78.2033 66.6134 78.614C67.0241 79.0153 67.5934 79.216 68.3214 79.216C68.7321 79.216 69.1241 79.1553 69.4974 79.034C69.8707 78.9033 70.2254 78.6933 70.5614 78.404L70.9534 79.202C70.6454 79.4913 70.2534 79.72 69.7774 79.888C69.3014 80.0467 68.8161 80.126 68.3214 80.126ZM68.1394 73.91C67.4954 73.91 66.9867 74.1107 66.6134 74.512C66.2401 74.9133 66.0207 75.4407 65.9554 76.094H70.0854C70.0574 75.4033 69.8754 74.8667 69.5394 74.484C69.2127 74.1013 68.7461 73.91 68.1394 73.91Z" fill="#606060"/>
</svg>
