<svg width="720" height="720" viewBox="0 0 720 720" fill="none" xmlns="http://www.w3.org/2000/svg">
<rect width="720" height="720" fill="#84B7FF"/>
<g clip-path="url(#clip0_1403_5615)">
<path d="M613.662 276.529H105.092C100.561 276.523 96.2161 274.721 93.0119 271.517C89.8077 268.312 88.0052 263.968 88 259.437V60.092C88.0052 55.5605 89.8077 51.2161 93.0119 48.0119C96.2161 44.8076 100.561 43.0052 105.092 43H613.662C618.194 43.0052 622.538 44.8076 625.742 48.0119C628.946 51.2161 630.749 55.5605 630.754 60.092V259.437C630.749 263.968 628.946 268.312 625.742 271.517C622.538 274.721 618.194 276.523 613.662 276.529Z" fill="#F2F2F2"/>
<path d="M495.052 265.628H185.82C162.776 265.602 140.684 256.436 124.39 240.142C108.095 223.848 98.9298 201.755 98.9038 178.712V140.826C98.9298 117.783 108.095 95.6904 124.39 79.396C140.684 63.1016 162.776 53.936 185.82 53.9098H532.937C555.981 53.936 578.073 63.1016 594.368 79.396C610.662 95.6904 619.827 117.783 619.853 140.826C619.816 173.914 606.655 205.636 583.259 229.033C559.862 252.429 528.14 265.59 495.052 265.628Z" fill="white"/>
<path d="M415.283 110.976H210.876C209.707 110.976 208.586 110.511 207.759 109.685C206.933 108.858 206.468 107.737 206.468 106.568C206.468 105.398 206.933 104.277 207.759 103.451C208.586 102.624 209.707 102.16 210.876 102.16H415.283C416.452 102.16 417.573 102.624 418.4 103.451C419.226 104.277 419.691 105.398 419.691 106.568C419.691 107.737 419.226 108.858 418.4 109.685C417.573 110.511 416.452 110.976 415.283 110.976Z" fill="#E6E6E6"/>
<path d="M518.757 158.006H210.876C209.707 158.006 208.586 157.542 207.759 156.715C206.933 155.889 206.468 154.767 206.468 153.598C206.468 152.429 206.933 151.308 207.759 150.481C208.586 149.655 209.707 149.19 210.876 149.19H518.757C519.926 149.19 521.047 149.655 521.874 150.481C522.7 151.308 523.165 152.429 523.165 153.598C523.165 154.767 522.7 155.889 521.874 156.715C521.047 157.542 519.926 158.006 518.757 158.006Z" fill="#E6E6E6"/>
<path d="M518.757 205.037H210.876C209.707 205.037 208.586 204.573 207.759 203.746C206.933 202.919 206.468 201.798 206.468 200.629C206.468 199.46 206.933 198.339 207.759 197.512C208.586 196.686 209.707 196.221 210.876 196.221H518.757C519.926 196.221 521.047 196.686 521.874 197.512C522.7 198.339 523.165 199.46 523.165 200.629C523.165 201.798 522.7 202.919 521.874 203.746C521.047 204.573 519.926 205.037 518.757 205.037Z" fill="#E6E6E6"/>
<path d="M518.757 205.037H210.876C209.707 205.037 208.586 204.573 207.759 203.746C206.933 202.919 206.468 201.798 206.468 200.629C206.468 199.46 206.933 198.339 207.759 197.512C208.586 196.686 209.707 196.221 210.876 196.221H518.757C519.926 196.221 521.047 196.686 521.874 197.512C522.7 198.339 523.165 199.46 523.165 200.629C523.165 201.798 522.7 202.919 521.874 203.746C521.047 204.573 519.926 205.037 518.757 205.037Z" fill="#E6E6E6"/>
<path d="M393.713 163.404C393.762 164.732 394.101 166.033 394.707 167.215C395.313 168.398 396.171 169.433 397.221 170.248C398.27 171.063 399.486 171.637 400.781 171.932C402.077 172.226 403.421 172.233 404.72 171.951L421.531 199.529L428.685 184.347L411.625 160.486C411.007 158.336 409.623 156.487 407.733 155.29C405.844 154.092 403.58 153.63 401.373 153.989C399.165 154.349 397.165 155.506 395.754 157.241C394.342 158.977 393.616 161.169 393.713 163.404H393.713Z" fill="#FFB6B6"/>
<path d="M519.865 242.441L461.932 211.017L443.659 193.873C443.659 193.873 435.715 191.746 438.639 189.163C441.563 186.58 433.231 184.089 433.231 184.089L423.421 174.886L409.482 184.749L413.516 191.002C413.516 191.002 413.239 201.354 418.91 199.363C424.581 197.371 423.164 205.957 423.164 205.957L457.014 258.428L519.865 242.441Z" fill="#3F3D56"/>
<path d="M348.855 212.835C380.107 212.835 405.441 187.5 405.441 156.249C405.441 124.997 380.107 99.6627 348.855 99.6627C317.603 99.6627 292.269 124.997 292.269 156.249C292.269 187.5 317.603 212.835 348.855 212.835Z" fill="#84B7FF"/>
<path d="M520.044 654.601H508.278L502.679 609.219H520.044V654.601Z" fill="#FFB6B6"/>
<path d="M526.254 674.987H517.816L516.31 667.02L512.453 674.987H490.074C489.002 674.987 487.957 674.644 487.093 674.008C486.229 673.372 485.591 672.477 485.271 671.453C484.952 670.429 484.969 669.33 485.318 668.316C485.668 667.302 486.333 666.426 487.216 665.816L505.087 653.474V645.421L523.884 646.543L526.254 674.987Z" fill="#2F2E41"/>
<path d="M425.942 654.601H414.176L408.577 609.219H425.942V654.601Z" fill="#FFB6B6"/>
<path d="M432.152 674.987H423.714L422.208 667.02L418.351 674.987H395.972C394.899 674.987 393.855 674.644 392.991 674.008C392.127 673.372 391.489 672.477 391.169 671.453C390.85 670.429 390.867 669.33 391.216 668.316C391.566 667.302 392.231 666.426 393.114 665.816L410.985 653.474V645.421L429.782 646.543L432.152 674.987Z" fill="#2F2E41"/>
<path d="M507.56 311.381H448.175V378.988H507.56V311.381Z" fill="#FFB6B6"/>
<path d="M449.545 344.728L439.496 356.605L422.137 393.15L378.398 497.219L369.147 519.228L376.618 558.135C376.618 558.135 377.827 585.546 377.827 590.033C377.827 599.169 385.468 604.232 385.468 604.232L391.074 633.43L445.434 631.146C445.434 631.146 443.537 598.961 432.152 590.843C420.767 582.724 415.533 540.414 415.533 540.414L409.346 521.642L469.645 450.164L470.034 475.149L470.222 487.243C470.222 487.243 461.392 565.899 471.685 581.164C481.979 596.428 471.895 594.633 471.895 594.633L472.386 626.121L536.795 626.578L522.586 535.922C522.586 535.922 515.37 530.225 519.231 524.498C523.091 518.771 515.489 511.758 515.489 511.758L518.899 440.985C518.899 440.985 515.124 428.761 519.564 427.172C524.005 425.583 520.147 415.07 520.147 415.07L520.807 401.372L507.56 358.889L449.545 344.728Z" fill="#2F2E41"/>
<path d="M508.473 311.381L514.869 292.195L519.437 285.8L521.264 267.528C521.264 218.193 510.259 226.408 510.259 226.408L503.905 209.056L474.67 208.143L455.941 225.958L440.409 231.44L434.327 263.042L445.434 296.763L448.175 315.036C442.946 324.688 443.389 320.122 447.718 327.369L499.337 341.53C517.609 347.926 517.609 331.481 513.945 327.369C510.282 323.258 508.473 311.381 508.473 311.381Z" fill="#3F3D56"/>
<path d="M485.511 202.01C500.479 202.01 512.613 189.876 512.613 174.908C512.613 159.939 500.479 147.805 485.511 147.805C470.542 147.805 458.408 159.939 458.408 174.908C458.408 189.876 470.542 202.01 485.511 202.01Z" fill="#FFB6B6"/>
<path d="M521.693 211.085C521.949 211.516 522.103 211.998 522.146 212.497C522.189 212.996 522.119 213.499 521.94 213.967C521.762 214.435 521.481 214.857 521.117 215.201C520.753 215.545 520.316 215.802 519.839 215.954C516.202 217.16 513.964 220.678 511.351 223.492C508.747 226.296 504.554 228.626 501.228 226.717C497.912 224.816 497.684 219.965 494.906 217.334C492.202 214.776 487.707 215.086 484.528 217.032L484.432 217.091C483.884 217.449 483.242 217.638 482.587 217.635C481.932 217.632 481.292 217.437 480.746 217.074C480.201 216.711 479.774 216.197 479.517 215.594C479.261 214.991 479.188 214.326 479.305 213.681C480.419 207.757 481.533 201.833 482.645 195.91C479.721 202.954 475.476 209.373 470.138 214.821C468.668 216.518 466.805 217.829 464.711 218.64C462.811 219.243 460.965 217.279 459.12 217.635C463.706 213.624 479.128 187.915 476.369 170.73C473.126 171.096 469.882 171.461 466.639 171.827C466.288 170.292 465.538 168.877 464.465 167.725C464.596 169.218 464.406 170.723 463.907 172.137C462.555 172.293 461.194 172.439 459.842 172.594C457.96 172.804 455.913 172.987 454.296 172C451.601 170.356 451.519 166.464 452.286 163.394C454.534 154.468 461.349 147.004 469.69 143.094C478.032 139.192 480.498 147.881 489.287 145.104C506.646 139.622 519.948 148.996 524.635 166.391C528.573 180.981 525.713 196.467 521.693 211.085Z" fill="#2F2E41"/>
<path d="M596.725 675.576H563.539L563.396 675.317C562.972 674.548 562.562 673.732 562.179 672.894C558.761 665.576 557.316 657.206 556.041 649.821L555.081 644.255C554.965 643.581 555.053 642.887 555.333 642.263C555.613 641.639 556.073 641.113 556.654 640.752C557.235 640.391 557.911 640.211 558.594 640.236C559.278 640.261 559.938 640.49 560.491 640.893C565.535 644.562 570.58 648.229 575.628 651.892C577.539 653.282 579.721 654.892 581.812 656.631C582.013 655.651 582.224 654.669 582.435 653.7C582.581 653.031 582.922 652.421 583.417 651.947C583.911 651.474 584.535 651.159 585.21 651.042C585.884 650.925 586.578 651.013 587.203 651.293C587.828 651.573 588.354 652.033 588.716 652.614L592.599 658.852C595.431 663.408 597.93 667.897 597.421 672.739C597.424 672.798 597.419 672.857 597.408 672.915C597.306 673.71 597.117 674.492 596.844 675.246L596.725 675.576Z" fill="#F0F0F0"/>
<path d="M630.035 676.294L314.677 676.601C314.363 676.6 314.061 676.473 313.839 676.25C313.617 676.027 313.493 675.725 313.493 675.411C313.493 675.096 313.617 674.794 313.839 674.571C314.061 674.348 314.363 674.221 314.677 674.22L630.035 673.913C630.35 673.914 630.651 674.04 630.873 674.263C631.095 674.486 631.22 674.788 631.22 675.103C631.22 675.418 631.095 675.72 630.873 675.943C630.651 676.166 630.35 676.292 630.035 676.294Z" fill="#CACACA"/>
<path d="M343.711 232.409L309.023 203.115C307.837 202.112 307.098 200.679 306.968 199.131C306.837 197.583 307.326 196.047 308.327 194.859L314.711 187.299C315.715 186.113 317.148 185.374 318.696 185.243C320.243 185.113 321.78 185.602 322.968 186.603L357.656 215.897C358.841 216.9 359.581 218.333 359.711 219.881C359.842 221.429 359.353 222.965 358.352 224.153L351.967 231.713C350.964 232.899 349.531 233.638 347.983 233.769C346.435 233.899 344.899 233.41 343.711 232.409Z" fill="#3F3D56"/>
<path d="M310.843 195.468C310.304 196.109 310.04 196.937 310.111 197.771C310.181 198.605 310.579 199.377 311.218 199.918L345.906 229.212C346.546 229.751 347.374 230.014 348.209 229.944C349.043 229.874 349.815 229.475 350.356 228.836L356.74 221.276C357.279 220.636 357.543 219.808 357.472 218.974C357.402 218.14 357.004 217.368 356.365 216.827L321.677 187.533C321.037 186.994 320.209 186.731 319.375 186.801C318.541 186.871 317.768 187.27 317.228 187.908L310.843 195.468Z" fill="white"/>
<path d="M331.207 206.856C331.087 207.025 330.929 207.163 330.746 207.26C330.563 207.356 330.36 207.409 330.153 207.414L324.703 207.539C324.528 207.543 324.353 207.513 324.19 207.449C324.027 207.386 323.878 207.291 323.751 207.17C323.624 207.049 323.523 206.904 323.452 206.744C323.381 206.584 323.343 206.411 323.339 206.236C323.335 206.061 323.365 205.887 323.429 205.724C323.492 205.56 323.587 205.411 323.708 205.285C323.829 205.158 323.973 205.056 324.134 204.986C324.294 204.915 324.466 204.876 324.641 204.872L328.207 204.79L324.696 195.525C324.571 195.194 324.583 194.828 324.729 194.506C324.874 194.184 325.141 193.933 325.471 193.808C325.801 193.683 326.168 193.694 326.49 193.839C326.812 193.983 327.064 194.25 327.19 194.58L331.369 205.608C331.445 205.807 331.472 206.022 331.447 206.234C331.423 206.446 331.348 206.649 331.229 206.826L331.207 206.856Z" fill="#3389FF"/>
<path d="M331.906 209.185C333.221 209.378 334.477 209.857 335.587 210.588C336.696 211.319 337.632 212.284 338.328 213.416C339.024 214.548 339.463 215.819 339.615 217.139C339.767 218.459 339.627 219.796 339.206 221.056L364.792 240.766L348.922 246.227L327.058 226.673C324.988 225.826 323.3 224.248 322.316 222.24C321.331 220.231 321.117 217.931 321.714 215.776C322.312 213.62 323.68 211.758 325.558 210.544C327.437 209.329 329.695 208.845 331.906 209.185L331.906 209.185Z" fill="#FFB6B6"/>
<path d="M465.115 218.93L399.606 259.208C399.606 259.208 373.193 249.435 378.355 244.911C383.517 240.387 367.084 237.328 367.084 237.328L348.931 225.115L338.397 237.358C338.397 237.358 340.316 257.243 343.582 253.8C346.848 250.356 351.73 259.762 351.73 259.762C351.73 259.762 353.172 270.265 362.469 267.622C371.765 264.979 396.711 292.682 396.711 292.682L477.333 262.613L465.115 218.93Z" fill="#3F3D56"/>
<path d="M346.865 178.948C346.106 178.948 345.357 178.771 344.677 178.431C343.998 178.091 343.407 177.598 342.952 176.99L330.954 160.993C330.568 160.479 330.288 159.894 330.129 159.272C329.969 158.65 329.934 158.002 330.025 157.366C330.116 156.73 330.331 156.118 330.658 155.565C330.986 155.013 331.418 154.53 331.932 154.144C332.97 153.366 334.275 153.032 335.559 153.215C336.195 153.306 336.807 153.521 337.36 153.849C337.913 154.176 338.396 154.609 338.781 155.123L346.63 165.588L366.791 135.348C367.51 134.269 368.63 133.519 369.902 133.265C371.174 133.01 372.495 133.272 373.575 133.991C374.654 134.711 375.404 135.83 375.658 137.102C375.913 138.375 375.651 139.696 374.932 140.775L350.936 176.769C350.502 177.42 349.918 177.957 349.233 178.336C348.549 178.715 347.783 178.924 347.001 178.946C346.956 178.947 346.91 178.948 346.865 178.948Z" fill="white"/>
</g>
<defs>
<clipPath id="clip0_1403_5615">
<rect width="543.219" height="633.601" fill="white" transform="translate(88 43)"/>
</clipPath>
</defs>
</svg>
