<svg width="717" height="720" viewBox="0 0 717 720" fill="none" xmlns="http://www.w3.org/2000/svg">
<g clip-path="url(#clip0_1831_12663)">
<rect width="717" height="720" fill="#84B7FF"/>
<g clip-path="url(#clip1_1831_12663)">
<path d="M71.977 570.5L58.2274 583.158L69.1545 564.824C60.5455 549.212 46.4657 535.72 46.4657 535.72C46.4657 535.72 17.2549 563.706 17.2549 585.705C17.2549 607.704 30.3329 615.385 46.4657 615.385C62.5982 615.385 75.6762 607.704 75.6762 585.705C75.6762 580.808 74.227 575.615 71.977 570.5Z" fill="#F2F2F2"/>
<path d="M54.6912 583.844V584.928C54.6268 597.533 52.5011 607.367 48.33 614.292C48.2709 614.394 48.2065 614.491 48.1474 614.593L47.6804 614.308L47.2349 614.029C51.8622 606.551 53.4995 595.981 53.5585 584.987C53.5639 584.633 53.5693 584.273 53.5639 583.914C53.5477 579.259 53.2633 574.552 52.807 569.978C52.7748 569.624 52.7372 569.264 52.6996 568.904C52.0662 562.871 51.1536 557.105 50.2196 552.097C50.1551 551.742 50.0854 551.388 50.0156 551.039C48.3997 542.568 46.7517 536.432 46.3759 535.074C46.333 534.908 46.3062 534.817 46.3008 534.795L46.8108 534.65L46.8161 534.645L47.3315 534.5C47.3369 534.521 47.4281 534.827 47.5784 535.396C48.1528 537.522 49.6452 543.293 51.1107 550.905C51.1751 551.249 51.2449 551.603 51.3093 551.957C52.0715 556.021 52.8177 560.562 53.4082 565.329C53.5585 566.526 53.6927 567.707 53.8108 568.872C53.8538 569.232 53.8914 569.591 53.9236 569.946C54.4175 574.89 54.6734 579.523 54.6912 583.844Z" fill="white"/>
<path d="M51.1109 550.905C50.7512 550.953 50.3862 551.001 50.0158 551.039C49.0099 551.143 47.9994 551.195 46.9881 551.195C42.6786 551.2 38.4227 550.239 34.534 548.382C34.3086 548.666 34.0831 548.951 33.8523 549.241C37.9431 551.238 42.436 552.273 46.9881 552.268C48.0676 552.268 49.1463 552.211 50.2198 552.097C50.5848 552.059 50.9498 552.011 51.3095 551.957C54.2784 551.531 57.1653 550.657 59.8717 549.364C59.6409 549.069 59.4154 548.779 59.1953 548.495C56.6339 549.692 53.9097 550.504 51.1109 550.905V550.905Z" fill="white"/>
<path d="M53.811 568.872C53.4406 568.893 53.0702 568.904 52.6998 568.904C52.587 568.91 52.469 568.91 52.3562 568.91C47.6866 568.91 43.0862 567.781 38.9473 565.619C34.8084 563.457 31.2536 560.326 28.586 556.493C28.3713 556.81 28.1566 557.126 27.9473 557.449C30.7276 561.327 34.3919 564.486 38.6367 566.666C42.8815 568.846 47.5845 569.983 52.3562 569.983C52.5065 569.983 52.6568 569.983 52.8072 569.978C53.1829 569.972 53.5533 569.962 53.9237 569.946C59.6553 569.652 65.1811 567.714 69.8403 564.363C69.6685 564.046 69.4967 563.729 69.3195 563.413C64.7914 566.703 59.4016 568.6 53.811 568.872V568.872Z" fill="white"/>
<path d="M54.6913 583.844C54.3156 583.876 53.9398 583.898 53.564 583.914C53.1614 583.93 52.7588 583.94 52.3562 583.94C46.0815 583.933 39.9779 581.894 34.9593 578.127C29.9407 574.361 26.2771 569.07 24.517 563.048C24.2754 563.482 24.0338 563.912 23.803 564.347C25.7862 570.356 29.6125 575.587 34.7382 579.297C39.864 583.007 46.0286 585.007 52.3562 585.014C52.7588 585.014 53.1614 585.009 53.5587 584.987C53.9398 584.977 54.3156 584.955 54.6913 584.928C62.2814 584.334 69.3622 580.879 74.4998 575.26C74.3871 574.863 74.2583 574.471 74.1294 574.074C69.167 579.734 62.1946 583.239 54.6913 583.844Z" fill="white"/>
<path d="M720.416 167.883H456.604V327.706H720.416V167.883Z" fill="#F0F0F0"/>
<path d="M715.977 133.636H348.342C348.117 133.636 347.9 133.547 347.741 133.387C347.581 133.227 347.491 133.011 347.491 132.785C347.491 132.559 347.581 132.343 347.741 132.183C347.9 132.024 348.117 131.934 348.342 131.934H715.977C716.202 131.934 716.419 132.024 716.578 132.183C716.738 132.343 716.828 132.559 716.828 132.785C716.828 133.011 716.738 133.227 716.578 133.387C716.419 133.547 716.202 133.636 715.977 133.636Z" fill="#CACACA"/>
<path d="M367.497 121.722C372.667 121.722 376.858 117.531 376.858 112.361C376.858 107.191 372.667 103 367.497 103C362.327 103 358.136 107.191 358.136 112.361C358.136 117.531 362.327 121.722 367.497 121.722Z" fill="#3F3D56"/>
<path d="M399.835 121.722C405.005 121.722 409.196 117.531 409.196 112.361C409.196 107.191 405.005 103 399.835 103C394.665 103 390.474 107.191 390.474 112.361C390.474 117.531 394.665 121.722 399.835 121.722Z" fill="#3F3D56"/>
<path d="M432.173 121.722C437.343 121.722 441.534 117.531 441.534 112.361C441.534 107.191 437.343 103 432.173 103C427.003 103 422.812 107.191 422.812 112.361C422.812 117.531 427.003 121.722 432.173 121.722Z" fill="#3F3D56"/>
<path d="M607.244 245.846L591.186 229.296C590.835 228.942 590.416 228.665 589.955 228.479C589.493 228.294 588.999 228.204 588.501 228.217H588.453C587.956 228.204 587.461 228.294 587 228.479C586.538 228.665 586.119 228.942 585.769 229.296L569.71 245.846C569.024 246.488 568.62 247.376 568.589 248.315C568.557 249.255 568.9 250.168 569.542 250.854C569.596 250.912 569.652 250.969 569.71 251.023C570.445 251.71 571.413 252.092 572.419 252.092C573.424 252.092 574.393 251.71 575.127 251.023L584.642 241.076V266.722C584.687 267.709 585.11 268.642 585.824 269.325C586.539 270.008 587.489 270.389 588.477 270.389C589.466 270.389 590.416 270.008 591.13 269.325C591.845 268.642 592.268 267.709 592.312 266.722V241.076L601.827 251.023C602.562 251.71 603.53 252.092 604.536 252.092C605.542 252.092 606.51 251.71 607.244 251.023C607.931 250.381 608.334 249.493 608.366 248.553C608.397 247.614 608.054 246.701 607.413 246.014C607.358 245.956 607.302 245.9 607.244 245.846Z" fill="white"/>
<path d="M588.51 287.227C581.056 287.227 573.77 285.016 567.572 280.875C561.374 276.734 556.544 270.848 553.692 263.961C550.839 257.075 550.093 249.497 551.547 242.187C553.001 234.876 556.59 228.161 561.861 222.89C567.132 217.62 573.847 214.03 581.158 212.576C588.468 211.122 596.046 211.868 602.932 214.721C609.819 217.573 615.705 222.404 619.846 228.601C623.987 234.799 626.197 242.085 626.197 249.539C626.186 259.531 622.212 269.11 615.147 276.176C608.081 283.241 598.502 287.215 588.51 287.227V287.227ZM588.51 213.248C581.332 213.248 574.316 215.376 568.348 219.364C562.38 223.352 557.728 229.02 554.981 235.651C552.234 242.282 551.516 249.579 552.916 256.619C554.316 263.659 557.773 270.126 562.848 275.201C567.924 280.277 574.39 283.733 581.43 285.133C588.47 286.534 595.767 285.815 602.398 283.068C609.03 280.321 614.698 275.67 618.685 269.702C622.673 263.734 624.802 256.717 624.802 249.539C624.791 239.917 620.964 230.693 614.16 223.889C607.356 217.086 598.132 213.259 588.51 213.248V213.248Z" fill="white"/>
<path d="M609.478 413.072H363.083C360.565 413.066 358.524 408.891 358.521 403.736V278.678C358.521 273.524 360.565 269.35 363.083 269.342H609.478C611.996 269.348 614.037 273.523 614.04 278.678V403.735C614.037 408.889 611.993 413.066 609.478 413.072Z" fill="white"/>
<path d="M442.324 340.401C454.223 340.401 463.87 330.755 463.87 318.855C463.87 306.956 454.223 297.309 442.324 297.309C430.424 297.309 420.778 306.956 420.778 318.855C420.778 330.755 430.424 340.401 442.324 340.401Z" fill="#84B7FF"/>
<path d="M509.889 385.25H404.193C404.06 385.252 403.928 385.241 403.798 385.218L453.79 298.63C454.095 298.091 454.538 297.642 455.073 297.33C455.608 297.018 456.217 296.853 456.836 296.853C457.456 296.853 458.064 297.018 458.6 297.33C459.135 297.642 459.578 298.091 459.883 298.63L493.432 356.738L495.04 359.518L509.889 385.25Z" fill="#84B7FF"/>
<path d="M568.738 385.251H477.318L495.032 359.521L496.307 357.667L519.391 324.134C519.8 323.621 520.311 323.2 520.893 322.898C521.475 322.595 522.114 322.419 522.768 322.38C523.423 322.341 524.078 322.44 524.692 322.671C525.306 322.902 525.864 323.26 526.33 323.72C526.449 323.851 526.56 323.989 526.662 324.134L568.738 385.251Z" fill="#84B7FF"/>
<path d="M609.478 413.072H363.083C360.565 413.066 358.524 408.891 358.521 403.736V278.678C358.521 273.524 360.565 269.35 363.083 269.342H609.478C611.996 269.348 614.037 273.523 614.04 278.678V403.735C614.037 408.889 611.993 413.066 609.478 413.072ZM363.083 273.076C361.572 273.076 360.347 275.586 360.345 278.678V403.735C360.345 406.827 361.572 409.334 363.083 409.337H609.478C610.989 409.337 612.214 406.828 612.216 403.735V278.678C612.216 275.586 610.989 273.079 609.478 273.076L363.083 273.076Z" fill="#E6E6E6"/>
<path d="M325.084 617.047H0.851005C0.625304 617.047 0.408847 616.958 0.249253 616.798C0.0896586 616.638 0 616.422 0 616.196C0 615.971 0.0896586 615.754 0.249253 615.594C0.408847 615.435 0.625304 615.345 0.851005 615.345H325.084C325.31 615.345 325.526 615.435 325.686 615.594C325.845 615.754 325.935 615.971 325.935 616.196C325.935 616.422 325.845 616.638 325.686 616.798C325.526 616.958 325.31 617.047 325.084 617.047Z" fill="#CACACA"/>
<path d="M228.028 279.466C220.015 268.182 204.162 267.656 204.162 267.656C204.162 267.656 188.713 266.01 178.804 283.196C169.567 299.214 182.581 319.126 182.581 319.126C185.154 319.28 196.275 319.347 229.372 315.258L230.855 307.261L235.109 314.554C236.878 314.338 238.717 314.115 240.64 313.883C239.77 305.396 235.738 290.324 228.028 279.466Z" fill="#2F2E41"/>
<path d="M246.917 437.349L244.794 364.328L230.341 370.651L237.315 438.14C235.812 439.306 234.725 440.926 234.217 442.759C233.71 444.593 233.808 446.541 234.497 448.314C235.187 450.087 236.431 451.59 238.043 452.599C239.656 453.607 241.552 454.068 243.448 453.912C245.344 453.755 247.139 452.991 248.565 451.732C249.991 450.473 250.972 448.787 251.362 446.925C251.752 445.063 251.53 443.125 250.729 441.399C249.928 439.674 248.591 438.253 246.917 437.349V437.349Z" fill="#FFB8B8"/>
<path d="M228.083 373.812C237.509 374.724 244.279 370.83 248.859 362.973L245.697 348.496C245.697 343.787 244.196 339.2 241.413 335.402C238.629 331.603 234.707 328.791 230.216 327.372L228.535 326.842L228.083 373.812Z" fill="#E6E6E6"/>
<path d="M149.46 353.733C149.337 353.733 149.213 353.72 149.092 353.695L131.657 353.4L131.619 352.967L131.619 352.948L133.066 317.023C133.082 316.656 133.171 316.295 133.326 315.963C133.481 315.63 133.701 315.331 133.972 315.083C134.243 314.835 134.56 314.642 134.906 314.517C135.251 314.392 135.618 314.335 135.985 314.352L149.95 314.975C150.317 314.991 150.677 315.079 151.01 315.235C151.343 315.39 151.641 315.61 151.889 315.881C152.137 316.152 152.329 316.469 152.455 316.814C152.58 317.16 152.636 317.526 152.62 317.893L151.246 352.016C151.227 352.478 151.031 352.914 150.698 353.233C150.365 353.553 149.922 353.732 149.46 353.733L149.46 353.733Z" fill="#3389FF"/>
<path d="M147.56 353.758C147.516 353.758 147.471 353.757 147.426 353.755L133.736 353.145C132.959 353.109 132.228 352.767 131.702 352.193C131.177 351.619 130.901 350.86 130.935 350.082L132.398 317.28C132.431 316.539 132.758 315.842 133.305 315.342C133.852 314.842 134.575 314.579 135.316 314.611L149.282 315.233C150.022 315.267 150.719 315.594 151.22 316.141C151.72 316.688 151.983 317.411 151.951 318.152L150.489 350.955C150.455 351.709 150.132 352.421 149.586 352.943C149.041 353.466 148.315 353.757 147.56 353.758V353.758Z" fill="#2F2E41"/>
<path d="M141.43 325.178C142.535 325.178 143.43 324.283 143.43 323.179C143.43 322.074 142.535 321.179 141.43 321.179C140.326 321.179 139.431 322.074 139.431 323.179C139.431 324.283 140.326 325.178 141.43 325.178Z" fill="#3389FF"/>
<path d="M158.051 362.659V375.845L145.313 355.773C146.218 354.224 146.599 352.425 146.398 350.643C146.197 348.861 145.425 347.191 144.197 345.883C142.97 344.576 141.353 343.7 139.587 343.387C137.821 343.073 136.001 343.34 134.399 344.145C132.796 344.951 131.497 346.253 130.696 347.857C129.894 349.461 129.632 351.282 129.95 353.047C130.267 354.812 131.147 356.427 132.458 357.652C133.768 358.876 135.44 359.644 137.222 359.84L155.029 391.391C155.957 393.037 157.387 394.342 159.109 395.119C160.831 395.895 162.757 396.101 164.604 395.707C166.452 395.313 168.125 394.339 169.381 392.927C170.637 391.516 171.409 389.74 171.585 387.86L173.789 364.36L158.051 362.659Z" fill="#FFB8B8"/>
<path d="M175.49 372.867C166.613 373.726 160.237 370.059 155.924 362.659L158.901 349.025C158.901 344.59 160.315 340.27 162.937 336.693C165.558 333.115 169.252 330.467 173.482 329.131L175.065 328.631L175.49 372.867Z" fill="#E6E6E6"/>
<path d="M196.07 609.142L186.357 607.566L187.814 569.355L202.149 571.681L196.07 609.142Z" fill="#FFB6B6"/>
<path d="M198.251 616.484L166.526 616.516L166.525 616.115C166.522 612.84 167.82 609.698 170.133 607.379C172.447 605.061 175.586 603.757 178.861 603.754H178.862L198.239 603.734L198.251 616.484Z" fill="#2F2E41"/>
<path d="M242.483 586.892L233.698 591.324L212.423 559.55L225.388 553.009L242.483 586.892Z" fill="#FFB6B6"/>
<path d="M249.019 594.276L220.695 608.567L220.514 608.209C219.039 605.285 218.786 601.895 219.81 598.784C220.834 595.673 223.052 593.097 225.976 591.621L225.977 591.621L243.276 582.893L249.019 594.276Z" fill="#2F2E41"/>
<path d="M203.074 315.829C212.612 315.829 220.345 308.096 220.345 298.558C220.345 289.019 212.612 281.286 203.074 281.286C193.535 281.286 185.802 289.019 185.802 298.558C185.802 308.096 193.535 315.829 203.074 315.829Z" fill="#FFB8B8"/>
<path d="M224.486 281.148L208.823 272.943L187.194 276.3L182.719 296.064C204.808 299.241 220.097 301.063 225.232 295.691L224.486 281.148Z" fill="#2F2E41"/>
<path d="M175.219 406.555C175.219 406.555 162.053 433.483 176.64 473.329L216.933 576.072L236.196 564.685L216.561 520.452L232.532 466.31C236.21 454.04 237.344 441.148 235.864 428.424C234.713 418.903 232.042 409.221 226.231 404.339C212.558 392.854 175.219 406.555 175.219 406.555Z" fill="#2F2E41"/>
<path d="M197.244 512.63L182.637 586.689L202.091 590.357L214.329 526.252L197.244 512.63Z" fill="#2F2E41"/>
<path d="M215.812 324.262L193.482 324.559L173.935 329.056L175.094 407.348C175.094 407.348 210.435 417.346 225.957 403.519L236.196 330.241C230.451 326.994 223.552 325.125 215.812 324.262Z" fill="#E4E4E4"/>
<path d="M213.835 280.88C219.945 280.88 224.898 275.927 224.898 269.817C224.898 263.707 219.945 258.754 213.835 258.754C207.725 258.754 202.772 263.707 202.772 269.817C202.772 275.927 207.725 280.88 213.835 280.88Z" fill="#2F2E41"/>
<path d="M202.772 267.264C202.771 265.628 203.133 264.012 203.833 262.533C204.532 261.054 205.551 259.748 206.816 258.71C208.08 257.672 209.56 256.928 211.147 256.531C212.734 256.134 214.39 256.095 215.994 256.415C214.578 255.747 213.036 255.387 211.47 255.36C209.904 255.332 208.351 255.638 206.912 256.256C205.473 256.874 204.182 257.791 203.124 258.946C202.066 260.101 201.265 261.467 200.775 262.954C200.285 264.442 200.116 266.016 200.28 267.574C200.444 269.131 200.937 270.636 201.726 271.989C202.515 273.341 203.582 274.511 204.858 275.42C206.133 276.329 207.587 276.957 209.123 277.262C207.225 276.37 205.62 274.956 204.495 273.185C203.371 271.415 202.773 269.361 202.772 267.264V267.264Z" fill="#2F2E41"/>
</g>
</g>
<defs>
<clipPath id="clip0_1831_12663">
<rect width="717" height="720" fill="white"/>
</clipPath>
<clipPath id="clip1_1831_12663">
<rect width="720.416" height="514.047" fill="white" transform="translate(0 103)"/>
</clipPath>
</defs>
</svg>
