<svg width="101" height="101" viewBox="0 0 101 101" fill="none" xmlns="http://www.w3.org/2000/svg">
<rect width="101" height="101" rx="4" fill="white"/>
<g clip-path="url(#clip0_1806_12559)">
<path d="M50.5 56C61.5457 56 70.5 47.0457 70.5 36C70.5 24.9543 61.5457 16 50.5 16C39.4543 16 30.5 24.9543 30.5 36C30.5 47.0457 39.4543 56 50.5 56Z" fill="#4A8CFF"/>
<path d="M37.6675 29.7385V39.1373C37.6724 40.1567 38.0819 41.1325 38.8059 41.8501C39.5299 42.5678 40.5092 42.9686 41.5286 42.9646H55.2289C55.4141 42.9655 55.5921 42.8929 55.7238 42.7627C55.8556 42.6326 55.9303 42.4555 55.9317 42.2703V32.8714C55.9267 31.852 55.5173 30.8763 54.7933 30.1586C54.0693 29.441 53.0899 29.0401 52.0705 29.0442H38.3745C38.2824 29.0432 38.1911 29.0603 38.1057 29.0947C38.0203 29.1291 37.9425 29.18 37.8768 29.2445C37.8111 29.309 37.7588 29.3859 37.7229 29.4706C37.687 29.5554 37.6681 29.6464 37.6675 29.7385V29.7385ZM56.8038 33.4049L62.46 29.2728C62.9511 28.8655 63.3322 28.968 63.3322 29.7046V42.3041C63.3322 43.1424 62.8665 43.0408 62.46 42.7351L56.8038 38.6123V33.4049Z" fill="white"/>
</g>
<path d="M33.172 80V79.146L38.842 71.124H33.172V70.13H40.242V70.984L34.558 79.006H40.438V80H33.172ZM44.4311 80.126C43.7684 80.126 43.1944 79.9813 42.7091 79.692C42.2237 79.4027 41.8457 78.9967 41.5751 78.474C41.3137 77.942 41.1831 77.3167 41.1831 76.598C41.1831 75.8793 41.3137 75.2587 41.5751 74.736C41.8457 74.204 42.2237 73.7933 42.7091 73.504C43.1944 73.2147 43.7684 73.07 44.4311 73.07C45.0844 73.07 45.6537 73.2147 46.1391 73.504C46.6337 73.7933 47.0117 74.204 47.2731 74.736C47.5437 75.2587 47.6791 75.8793 47.6791 76.598C47.6791 77.3167 47.5437 77.942 47.2731 78.474C47.0117 78.9967 46.6337 79.4027 46.1391 79.692C45.6537 79.9813 45.0844 80.126 44.4311 80.126ZM44.4311 79.216C45.0657 79.216 45.5744 78.992 45.9571 78.544C46.3397 78.0867 46.5311 77.438 46.5311 76.598C46.5311 75.7487 46.3397 75.1 45.9571 74.652C45.5744 74.204 45.0657 73.98 44.4311 73.98C43.7871 73.98 43.2737 74.204 42.8911 74.652C42.5177 75.1 42.3311 75.7487 42.3311 76.598C42.3311 77.438 42.5177 78.0867 42.8911 78.544C43.2737 78.992 43.7871 79.216 44.4311 79.216ZM52.2104 80.126C51.5477 80.126 50.9737 79.9813 50.4884 79.692C50.003 79.4027 49.625 78.9967 49.3544 78.474C49.093 77.942 48.9624 77.3167 48.9624 76.598C48.9624 75.8793 49.093 75.2587 49.3544 74.736C49.625 74.204 50.003 73.7933 50.4884 73.504C50.9737 73.2147 51.5477 73.07 52.2104 73.07C52.8637 73.07 53.433 73.2147 53.9184 73.504C54.413 73.7933 54.791 74.204 55.0524 74.736C55.323 75.2587 55.4584 75.8793 55.4584 76.598C55.4584 77.3167 55.323 77.942 55.0524 78.474C54.791 78.9967 54.413 79.4027 53.9184 79.692C53.433 79.9813 52.8637 80.126 52.2104 80.126ZM52.2104 79.216C52.845 79.216 53.3537 78.992 53.7364 78.544C54.119 78.0867 54.3104 77.438 54.3104 76.598C54.3104 75.7487 54.119 75.1 53.7364 74.652C53.3537 74.204 52.845 73.98 52.2104 73.98C51.5664 73.98 51.053 74.204 50.6704 74.652C50.297 75.1 50.1104 75.7487 50.1104 76.598C50.1104 77.438 50.297 78.0867 50.6704 78.544C51.053 78.992 51.5664 79.216 52.2104 79.216ZM57.1897 80V73.196H58.2957V74.344C58.501 73.9333 58.7857 73.6207 59.1497 73.406C59.5137 73.182 59.9383 73.07 60.4237 73.07C61.4877 73.07 62.169 73.532 62.4677 74.456C62.673 74.0267 62.9763 73.6907 63.3777 73.448C63.779 73.196 64.241 73.07 64.7637 73.07C66.2757 73.07 67.0317 73.966 67.0317 75.758V80H65.8977V75.814C65.8977 75.1887 65.7857 74.7313 65.5617 74.442C65.347 74.1433 64.9877 73.994 64.4837 73.994C63.933 73.994 63.4943 74.19 63.1677 74.582C62.841 74.974 62.6777 75.4967 62.6777 76.15V80H61.5437V75.814C61.5437 75.1887 61.4317 74.7313 61.2077 74.442C60.993 74.1433 60.6337 73.994 60.1297 73.994C59.5697 73.994 59.1263 74.19 58.7997 74.582C58.4823 74.974 58.3237 75.4967 58.3237 76.15V80H57.1897Z" fill="#606060"/>
<defs>
<clipPath id="clip0_1806_12559">
<rect width="40" height="40" fill="white" transform="translate(30.5 16)"/>
</clipPath>
</defs>
</svg>
